<svg width="143" height="102" viewBox="0 0 143 102" fill="none" xmlns="http://www.w3.org/2000/svg">
<path d="M141.156 30.2543C141.668 25.097 142.99 19.7672 138.776 15.5729C134.564 11.3751 126.531 11.376 123.405 16.1703C120.276 20.9673 113.41 27.1636 110.5 27.3854C107.588 27.6104 100.497 28.8898 100.497 28.8898L103.154 49.9323C103.154 49.9323 111.724 44.5161 116.97 45.0801C122.216 45.6441 130.606 49.6294 134.023 49.0739C137.444 48.5148 140.302 46.4268 142.286 42.3822C144.27 38.3381 140.601 35.8487 141.156 30.2543Z" fill="#CB3E1F"/>
<path opacity="0.2" d="M137.71 23.1153C136.742 26.2881 138.829 27.6905 140.639 29.0207C140.84 29.1681 141.04 29.3205 141.239 29.4778C141.73 25.0817 142.573 20.609 139.876 16.8621C139.379 19.089 138.386 20.8995 137.71 23.1153Z" fill="#2D0C09"/>
<path opacity="0.2" d="M142.286 42.3826C142.671 41.5977 142.841 40.872 142.873 40.1704C142.361 40.7958 141.761 41.3121 141.113 41.6877C137.013 44.0657 132.109 42.5341 128.154 40.4795C125.396 39.0459 123.397 40.0349 120.626 40.4483C118.354 40.7869 116.422 39.9423 114.567 38.2075C112.022 35.8278 109.487 31.7926 109.331 27.5034C106.033 27.891 100.497 28.8898 100.497 28.8898L103.154 49.9323C103.154 49.9323 111.724 44.5161 116.97 45.08C122.216 45.644 130.606 49.6293 134.023 49.0738C137.444 48.5152 140.303 46.4272 142.286 42.3826Z" fill="#2D0C09"/>
<path opacity="0.3" d="M136.125 20.1614C136.356 18.6771 135.387 17.8498 134.53 17.3054C133.192 16.4599 128.324 18.2476 128.312 20.5446C128.294 23.3988 131.907 23.3235 133.35 23.9877C134.142 24.3495 134.174 25.6703 134.791 26.2067C135.097 26.4709 135.919 26.5292 136.183 26.1368C136.998 24.9277 135.891 21.6676 136.125 20.1614Z" fill="white"/>
<path opacity="0.3" d="M137.212 39.7009C134.78 36.5103 132.998 32.2163 129.704 31.2335C128.481 30.87 127.557 32.2889 126.47 32.725C124.51 33.5104 122.618 34.0071 120.578 34.2726C119.836 34.3688 118.076 34.041 117.475 34.833C116.918 35.5676 117.038 37.0235 117.586 37.7135C118.286 38.5987 121.41 38.7644 122.511 39.1213C123.703 39.5106 125.39 39.6697 126.486 40.5205C128.728 42.2677 131.016 43.7753 133.611 44.0706C135.664 44.3041 138.867 41.8824 137.212 39.7009Z" fill="white"/>
<path d="M113.294 46.6507C112.939 48.0482 112.773 49.8738 111.879 50.9572C111.204 51.7698 110.335 51.7805 109.534 51.862C108.107 52.0081 106.922 54.2944 105.596 54.8681C103.408 55.8215 101.083 55.7404 98.9443 56.4933C96.5547 57.3437 95.4224 61.26 93.4654 63.0477C92.6689 63.7681 91.9653 63.1885 91.1848 63.703C89.0376 65.1112 87.0969 66.9533 85.2087 68.8925C83.8137 70.3171 82.839 72.3486 81.5129 73.8489C80.6838 74.7862 79.7501 75.409 79.0301 76.5303C77.5663 78.8108 76.9557 81.6708 74.9382 83.4367C73.3856 84.8017 71.7235 85.8365 69.9241 86.519C68.3027 87.1364 66.6207 87.3476 65.1691 88.5883C62.7107 90.6794 61.2551 94.9529 58.6713 96.6538C57.5673 97.3741 54.7816 97.8455 53.5442 97.2766C52.9054 96.9839 52.4807 95.7762 51.781 95.9005C50.0465 96.2145 48.0895 98.56 46.4478 99.4051C44.8788 100.201 43.4516 99.5838 41.891 99.86C40.2332 100.163 38.7571 101.609 37.0106 101.588C35.7246 101.577 34.9728 100.412 33.7919 100.115C32.2878 99.7357 31.3175 101.388 29.987 101.772C29.0043 102.049 26.7763 102.135 25.8748 101.729C24.5446 101.112 22.2155 99.7089 21.4068 98.1217C20.5698 96.4694 20.4484 94.254 19.3527 92.9269C18.6088 92.0279 16.8579 92.2065 15.8833 91.6216C14.6296 90.8741 13.1255 88.8427 12.0461 87.5971C10.4206 85.7229 9.84233 82.2455 8.35853 80.1058C5.58481 76.092 4.35141 72.5873 2.55203 67.6741C1.7556 65.4965 0.716407 63.3079 0.251182 60.957C-0.294517 58.1674 0.162394 54.6899 0.55845 51.8892C0.889993 49.5384 -0.237985 46.9545 0.0935578 44.6037C0.433082 42.215 0.60301 39.8045 1.08819 37.4105C1.39945 35.8557 1.96975 34.3878 2.25275 32.8442C2.56001 31.1541 2.96837 29.3017 3.73688 27.8606C4.59816 26.2519 6.05369 24.8487 7.54979 24.5186C8.35055 24.3399 9.3209 24.6161 9.89919 23.6084C10.4775 22.5847 9.48252 21.1329 10.2347 20.2227C11.1406 19.1286 12.3577 19.6325 13.0287 17.9641C14.3549 14.6818 13.328 9.55737 16.7568 8.34387C17.8689 7.95363 19.1708 8.11623 19.9715 9.39478C20.6589 10.4889 20.6063 14.0532 22.2883 13.5712C23.2467 13.3003 25.236 11.9897 25.9719 11.1553C27.2053 9.76319 27.8198 7.56383 29.0369 6.18817C29.9388 5.16979 34.2206 4.00529 35.3732 4.13538C36.562 4.2708 37.9045 5.19696 39.1013 4.85572C40.2093 4.53631 40.9695 2.835 41.8387 2.00105C43.4845 0.424927 48.0699 0.191933 49.8164 0.98267C51.2759 1.65981 52.4122 3.82086 53.8395 4.24897C56.4273 5.01832 59.1688 3.64757 61.611 5.68967C63.7499 7.47162 65.3431 10.6515 67.2881 12.9373C67.6033 13.3164 67.9269 13.663 68.2668 13.9775C68.6226 14.308 68.9987 14.6003 69.3868 14.8711C70.4582 15.624 71.6307 16.1929 72.7388 16.8428C73.1069 17.054 73.4667 17.271 73.8142 17.5093C75.4476 18.6306 76.7539 19.481 78.5409 20.1038C80.5871 20.8081 82.6209 19.7029 84.7315 20.678C87.473 21.9294 90.0931 24.6322 93.1219 24.6593C94.2701 24.67 96.9471 24.2856 97.8729 23.4405C98.7302 22.6604 99.1425 21.5663 100.161 21.095C102.636 19.9519 107.161 21.1979 109.324 22.8823C110.246 23.6026 110.29 25.0923 109.995 26.3976C109.845 27.0694 109.611 27.6922 109.356 28.1363C108.818 29.0843 107.808 29.4149 107.44 30.4333C107.436 30.4386 107.436 30.4493 107.432 30.4551C107.343 30.7041 107.294 30.9915 107.302 31.3487C107.302 31.4298 107.302 31.5113 107.31 31.5924C107.423 32.9792 107.844 33.4884 108.402 34.566C108.895 35.5247 110.234 36.3752 110.82 37.3071C112.005 39.1862 113.938 44.1266 113.294 46.6507Z" fill="#DF7032"/>
<path opacity="0.2" d="M113.294 46.6504C112.939 48.0479 112.773 49.8735 111.879 50.9569C111.204 51.7695 110.334 51.7802 109.534 51.8617C108.107 52.0078 106.922 54.2941 105.596 54.8678C103.408 55.8212 101.083 55.7401 98.9442 56.493C96.5546 57.3434 95.4223 61.2597 93.4653 63.0474C92.6689 63.7677 91.9652 63.1882 91.1847 63.7027C89.0375 65.1109 87.0968 66.953 85.2086 68.8922C83.8136 70.3168 82.839 72.3482 81.5128 73.8486C80.6838 74.7859 79.75 75.4087 79.03 76.53C77.5662 78.8105 76.9556 81.6705 74.9381 83.4364C73.3855 84.8013 71.7234 85.8362 69.9241 86.5187C68.3026 87.1361 66.6206 87.3473 65.1691 88.588C62.7106 90.6791 61.2551 94.9526 58.6712 96.6535C57.5672 97.3738 54.7815 97.8451 53.5441 97.2763C52.9053 96.9836 52.4806 95.7759 51.781 95.9002C50.0464 96.2142 48.0894 98.5597 46.4477 99.4048C44.8787 100.201 43.4515 99.5834 41.8909 99.8596C40.2332 100.163 38.757 101.609 37.0105 101.588C35.7246 101.577 34.9727 100.412 33.7918 100.114C32.2878 99.7353 31.3174 101.387 29.9869 101.772C29.0042 102.048 26.7762 102.135 25.8747 101.729C24.5445 101.111 22.2154 99.7086 21.4067 98.1213C20.5697 96.469 20.4483 94.2536 19.3526 92.9265C18.6087 92.0275 16.8579 92.2062 15.8832 91.6213C14.6295 90.8737 13.1254 88.8423 12.046 87.5967C10.4205 85.7226 9.84223 82.2451 8.35844 80.1055C5.58471 76.0916 4.35132 72.587 2.55194 67.6738C1.75551 65.4962 0.716315 63.3076 0.251091 60.9567C-0.294609 58.1671 0.162302 54.6896 0.558358 51.8889C0.889902 49.5381 -0.238077 46.9542 0.0934662 44.6034C0.0974567 44.5874 0.0974567 44.5762 0.101447 44.5655C-0.250381 47.0518 4.347 54.1693 5.27711 56.4391C6.42937 59.2559 8.33416 64.689 10.9097 65.5987C11.7507 65.8967 14.011 65.6147 14.7509 65.5827C16.7484 65.4851 18.0989 65.2196 19.5182 62.6901C21.4024 59.3369 19.324 57.2351 20.6787 54.5431C22.3245 51.2714 25.175 51.5583 24.5605 46.2931C24.3018 44.0884 23.3474 43.4656 23.8489 40.9736C24.1398 39.5382 25.1308 38.7475 25.5149 37.4146C25.7939 36.4394 25.4946 35.1667 25.7616 34.3216C26.4287 32.2091 26.3196 32.6533 27.8643 31.5213C28.4585 31.0825 28.96 31.7271 29.5383 31.0228C29.9952 30.4646 29.6637 29.0457 29.9912 28.3254C32.8378 22.0146 38.7899 18.3474 42.9626 13.8302C49.7841 6.44716 60.0017 7.2272 67.2883 12.9365C67.83 13.3589 68.3558 13.8141 68.8652 14.2908C69.0595 14.4748 69.2334 14.6699 69.387 14.8704C70.3331 16.0674 70.7132 17.3838 72.3912 17.0101C72.5245 16.9829 72.6379 16.9232 72.739 16.8421C73.1071 17.0533 73.4669 17.2702 73.8145 17.5086C75.4479 18.6298 76.7541 19.4803 78.5412 20.1031C80.5873 20.8074 82.6211 19.7021 84.7318 20.6773C87.4732 21.9287 90.0933 24.6314 93.1221 24.6586C94.2704 24.6693 96.9473 24.2848 97.8731 23.4397C98.7304 22.6597 99.1428 21.5656 100.162 21.0943C102.636 19.9512 107.161 21.1972 109.324 22.8816C110.246 23.6019 110.291 25.0916 109.995 26.3969C109.122 27.8269 107.852 29.0297 107.44 30.4325C107.436 30.4379 107.436 30.4486 107.432 30.4544C107.351 30.7413 107.302 31.0393 107.302 31.348C107.302 31.4291 107.302 31.5106 107.31 31.5917C107.423 32.9785 107.844 33.4877 108.402 34.5653C108.895 35.524 110.234 36.3744 110.82 37.3064C112.004 39.1859 113.938 44.1263 113.294 46.6504Z" fill="#2D0C09"/>
<path opacity="0.2" d="M111.877 50.9556C112.775 49.8713 112.938 48.0479 113.295 46.6491C113.693 45.0899 113.105 42.6063 112.317 40.4921C112.319 41.0503 112.3 41.6013 112.236 42.1328C112.261 42.6651 112.145 43.189 111.932 43.6488C111.451 45.3162 110.486 46.7257 108.788 47.6323C108.783 47.6354 108.777 47.6372 108.771 47.6403C104.249 52.3972 97.9091 51.5958 93.6296 56.7995C91.1648 59.7967 88.3189 61.6116 85.3477 63.1205C84.1186 64.7666 82.6488 65.8371 81.1377 67.1664C80.1514 68.0342 80.0842 68.375 79.7061 69.6945C79.4544 70.5726 79.0178 71.3116 78.4661 71.885C77.8755 72.4989 77.1745 72.9239 76.4605 73.2958C75.7469 75.325 74.446 76.9372 72.9968 78.2127C72.9785 78.2398 72.9625 78.2692 72.9439 78.2964C72.6097 78.7784 72.1132 79.1602 71.5915 79.3273C71.5692 79.3433 71.5469 79.3607 71.5246 79.3763C70.1499 80.355 68.6611 80.943 67.2691 81.8532C65.3387 83.1148 63.9217 85.442 62.1333 86.9994C59.1867 89.5658 56.5985 89.3436 53.2276 89.4843C49.5816 89.6367 45.8771 92.1871 42.3578 93.4086C36.1799 95.5527 29.4073 96.809 24.0737 91.1424C21.6285 88.5448 19.7962 85.0143 17.224 82.6394C14.3668 80.0008 10.9264 78.2389 8.87359 74.2875C6.85772 70.4069 5.65958 65.7979 4.19008 61.5346C2.72657 57.2878 2.24505 52.3264 0.548091 48.2328C0.433365 47.9727 0.317973 47.7134 0.203579 47.4532C0.425051 48.9474 0.76125 50.4594 0.55973 51.888C0.163009 54.6875 -0.295233 58.1676 0.251132 60.9532C0.716357 63.3063 1.75721 65.4958 2.55331 67.6694C4.35302 72.5875 5.58542 76.0908 8.35981 80.1024C9.84427 82.2456 10.4202 85.7191 12.0477 87.5968C13.1248 88.8406 14.6315 90.872 15.8819 91.62C16.8592 92.2045 18.6077 92.0267 19.3533 92.9275C20.4467 94.2528 20.5704 96.466 21.4081 98.1187C22.2145 99.7087 24.5449 101.112 25.8764 101.726C26.7776 102.135 29.0036 102.049 29.9876 101.769C31.3161 101.387 32.2881 99.7327 33.7925 100.115C34.9721 100.413 35.7256 101.574 37.0115 101.587C38.7574 101.608 40.2329 100.161 41.8902 99.8615C43.4512 99.5804 44.8798 100.203 46.4467 99.4013C48.0881 98.5602 50.0445 96.2121 51.7813 95.8984C52.4803 95.7719 52.9033 96.981 53.5428 97.2736C54.7812 97.8412 57.5689 97.373 58.6699 96.65C61.2541 94.9535 62.7106 90.6796 65.1678 88.5867C66.6206 87.3487 68.3013 87.1335 69.9248 86.5174C71.7245 85.8349 73.3862 84.7996 74.9398 83.4355C76.955 81.6665 77.5676 78.8069 79.0291 76.5309C79.75 75.407 80.6828 74.7824 81.5118 73.8456C82.8387 72.3456 83.8137 70.3169 85.2074 68.8882C87.0955 66.9526 89.0362 65.1078 91.1828 63.6987C91.9649 63.1847 92.6702 63.7682 93.464 63.0448C95.423 61.2584 96.5536 57.3394 98.9433 56.493C101.084 55.7361 103.408 55.8203 105.594 54.8688C106.923 54.2919 108.106 52.0048 109.532 51.8613C110.334 51.7807 111.203 51.7709 111.877 50.9556Z" fill="#2D0C09"/>
<path opacity="0.3" d="M100.163 21.0929C99.1418 21.5643 98.7312 22.6584 97.8739 23.4402C96.9464 24.2862 94.2694 24.6715 93.1225 24.6608C90.0917 24.6287 87.473 21.93 84.7332 20.676C82.6215 19.7039 80.5857 20.8092 78.5396 20.1004C76.7545 19.4812 75.4493 18.6294 73.8132 17.5068C72.0344 16.2964 69.9198 15.5137 68.2681 13.9745C65.8488 11.7181 64.096 7.75734 61.6109 5.68761C59.1681 3.64729 56.427 5.01849 53.8395 4.24914C52.4099 3.82014 51.2772 1.65731 49.8144 0.984181C48.0712 0.18899 43.4858 0.422864 41.8371 2.003C40.9681 2.83561 40.2073 4.53603 39.1019 4.85322C37.9048 5.19758 36.5613 4.27141 35.3738 4.13688C34.2189 4.0059 29.9371 5.17129 29.0366 6.18833C27.8208 7.56176 27.2049 9.76112 25.9735 11.1519C25.2343 11.9872 23.2457 13.2983 22.289 13.5718C20.604 14.0543 20.6605 10.4895 19.9725 9.39672C19.1701 8.11506 17.8685 7.95112 16.7555 8.34359C13.3297 9.55665 14.3529 14.6797 13.0294 17.9634C12.357 19.6313 11.1392 19.1261 10.233 20.2216C9.4805 21.1312 10.4788 22.5844 9.89817 23.6055C9.32188 24.6172 8.35219 24.3374 7.54976 24.5151C6.053 24.8457 4.5958 26.2525 3.73619 27.8621C2.96735 29.3014 2.56065 31.1542 2.25339 32.8435C2.1646 33.3291 2.04388 33.8057 1.91519 34.2806C4.18312 33.6146 7.0862 31.2344 8.31727 30.8143C9.78012 30.3105 10.8519 30.6513 12.0078 29.0684C13.2229 27.4104 12.9007 24.7918 14.2119 23.2469C15.9897 21.1557 18.363 22.2975 17.809 25.5852C17.6713 26.3995 16.4333 27.5672 16.1506 28.5731C15.165 29.938 14.2588 31.5017 13.4447 33.3055C12.4414 35.5244 10.2061 37.9741 10.3631 40.8119C10.6417 45.7706 16.9327 41.9848 18.774 40.9856C21.5727 39.4661 23.9643 37.4988 26.4607 35.3061C27.9605 33.9902 29.676 33.1625 31.2247 31.9668C34.2974 29.5941 36.6228 26.7163 40.4221 26.9809C44.5599 27.2647 48.3831 29.6494 52.4215 30.4958C60.8907 32.2742 69.6937 34.453 78.2114 35.4135C79.4464 35.5503 80.6958 35.597 81.9448 35.5552C86.7866 35.3761 91.654 33.8343 95.9218 31.0785C96.3056 30.8312 96.6744 30.5581 97.0359 30.2721C99.3204 28.4296 101.222 25.8614 103.773 24.1801C105.137 23.2794 106.496 23.201 106.792 21.5148C104.576 20.6604 101.876 20.3026 100.163 21.0929Z" fill="white"/>
<path opacity="0.3" d="M99.3922 40.3268C98.5396 38.2606 93.9711 36.8235 92.3374 36.3343C88.6056 35.2224 85.3194 37.1371 81.9501 38.9346C75.727 42.2535 70.1147 46.2397 64.4841 51.0354C62.5171 52.7108 60.1807 53.7029 58.1339 55.2051C55.0346 57.4784 52.2439 60.4097 48.9222 62.3075C45.7311 64.1304 42.2424 65.5355 38.9037 66.7753C36.1795 67.787 32.3477 69.0495 29.6657 67.3562C26.8953 65.6072 26.0277 62.7877 24.4611 59.5918C23.7841 58.1992 22.6614 57.2214 21.7649 56.0867C19.6669 53.4392 17.646 50.2531 15.0422 48.4743C13.7031 47.5606 7.99003 47.5922 7.93416 50.5885C7.89858 52.5077 13.3213 54.4117 14.6176 55.4408C19.7114 59.4835 23.8087 65.4223 28.9102 69.4393C34.6625 73.9689 40.722 74.5116 47.0197 71.4163C51.4378 69.2446 54.6056 65.519 58.6403 62.536C60.9708 60.8133 62.8862 58.7592 65.0683 56.6846C67.5544 54.3208 69.7219 53.9047 72.5129 52.9318C76.0489 51.6996 78.6161 49.187 81.2095 45.9239C83.4855 43.0603 85.2988 40.6146 88.6442 41.7773C91.4731 42.7605 94.7586 45.4169 97.6663 43.4782C99.4052 42.319 99.777 41.2592 99.3922 40.3268Z" fill="white"/>
<path d="M77.3461 45.6734C79.194 45.5794 76.256 42.4165 75.5646 42.0962C72.6646 40.7686 71.4052 43.3582 69.2839 45.1651C68.5849 45.7607 67.6449 45.5144 67.0014 46.2419C66.1228 47.2349 65.7517 48.8573 66.2801 50.3025C67.2714 53.0083 74.3422 52.3588 75.8317 50.1492C76.4239 49.2716 76.7122 47.9476 76.9909 46.8553C77.1426 46.2597 77.1432 46.3666 77.1868 45.6725C77.1938 45.534 77.084 45.2475 77.1881 45.2498C77.3065 45.2511 77.227 45.6801 77.3461 45.6734Z" fill="#DF7032"/>
<path opacity="0.2" d="M67.8347 51.2856C68.0778 45.4306 74.6076 41.2649 77.9377 45.0756C77.81 44.1196 76.0751 42.3323 75.5643 42.0962C72.6642 40.7686 71.4049 43.3582 69.2836 45.1651C68.5846 45.7607 67.6445 45.5144 67.001 46.2419C66.1225 47.2348 65.7513 48.8573 66.2798 50.3024C66.5129 50.939 67.0852 51.3876 67.8394 51.6763C67.8324 51.5485 67.8291 51.4193 67.8347 51.2856Z" fill="#2D0C09"/>
<path d="M54.4037 47.9735C54.4586 48.2809 53.9076 46.1243 53.7213 45.6784C53.0127 43.9833 52.053 42.9253 51.0903 41.4984C49.1103 38.56 43.9982 33.7064 40.9435 35.712C40.002 36.3308 39.9448 38.3813 39.9711 39.5151C39.9954 40.6457 40.7044 43.075 41.399 43.8523C42.0242 44.5535 43.4754 45.5069 43.4671 46.9253C43.4528 49.5635 38.4102 47.7766 38.8877 51.6194C38.9342 52.0096 39.1594 53.0979 39.3825 53.4044C39.6672 53.7907 40.0795 53.9644 40.4533 54.1773C41.5434 54.8073 42.7295 54.6023 43.8635 54.8923C46.9877 55.688 48.819 57.5461 52.0812 55.4042C53.323 54.5885 53.9993 51.6185 54.3897 50.0909C54.5327 49.5412 54.28 47.2554 54.4037 47.9735Z" fill="#CB3E1F"/>
<path opacity="0.2" d="M49.7082 55.349C47.9049 54.7494 45.9459 54.3164 44.215 53.3946C42.3491 52.4012 42.6823 49.2948 44.201 48.1531C44.2526 48.1143 44.7647 47.6679 45.1714 47.3098C44.8136 46.6839 44.3912 45.6018 44.1924 45.2285C43.236 43.4318 42.3142 41.6053 41.5939 39.6122C41.1689 38.4357 40.864 37.1576 40.7243 35.9036C39.995 36.6769 39.9468 38.4785 39.9711 39.516C39.9957 40.6466 40.7044 43.0759 41.3994 43.8532C42.0245 44.5544 43.4757 45.5078 43.4674 46.9262C43.4531 49.5644 38.4105 47.7775 38.888 51.6203C38.9346 52.0105 39.1597 53.0988 39.3828 53.4053C39.6675 53.7916 40.0798 53.9653 40.4536 54.1783C41.5437 54.8082 42.7299 54.6032 43.8638 54.8933C46.713 55.6185 48.4901 57.2182 51.2549 55.8711C50.7667 55.7241 50.2566 55.5312 49.7082 55.349Z" fill="#2D0C09"/>
<path d="M76.0561 65.8245C75.2138 64.6769 73.9761 64.2965 72.8418 63.9267C70.8502 63.2772 67.2963 63.7468 65.9342 66.1417C64.5742 68.5308 64.3068 72.4832 61.9062 73.6383C60.1341 74.4919 58.9389 72.8053 57.2955 72.2355C55.7791 71.7089 53.722 71.9807 52.2356 72.6035C51.227 73.0262 49.6627 73.7702 48.9949 74.9423C48.5636 75.7 48.3285 76.6293 47.8414 77.388C47.306 78.2224 46.3516 79.8537 47.2508 80.9403C49.4299 83.5776 52.0111 79.8328 54.2704 81.184C56.7505 82.6697 52.608 85.4392 53.986 86.4336C55.5949 87.5976 58.6426 86.8011 60.0652 85.3956C61.2597 84.215 61.688 82.1253 62.558 80.5955C64.238 77.645 66.2485 74.8594 68.1127 72.0952C68.5889 71.3882 69.1961 70.7845 69.8935 70.5043C71.2599 69.9577 72.2263 71.2933 73.4922 71.3067C76.0023 71.332 78.2117 68.7571 76.0561 65.8245Z" fill="#DF7032"/>
<path opacity="0.3" d="M64.2872 70.4125C64.9629 69.3255 65.7118 68.3223 66.5861 67.4674C68.3957 65.6975 70.4179 65.1037 72.5745 65.9657C74.0912 66.572 75.4496 67.5383 76.9201 68.1722C76.9165 67.451 76.6654 66.6535 76.0562 65.8245C75.2138 64.6774 73.9761 64.2965 72.8418 63.9267C70.8502 63.2772 67.2964 63.7468 65.9343 66.1412C65.2446 67.3534 64.8352 68.9656 64.2872 70.4125Z" fill="white"/>
<path opacity="0.3" d="M49.5968 75.966C49.9257 75.4871 50.2117 75.0835 50.3188 74.9811C51.3673 73.9743 52.6545 73.5707 53.9325 73.5943C56.2034 73.6366 58.1883 75.0541 59.6681 77.2294C60.0812 77.1546 60.4982 77.0971 60.9374 77.0325C60.9394 77.0321 60.9411 77.0325 60.9431 77.0325C61.1499 76.5857 61.3421 76.1603 61.5164 75.7909C61.981 74.8064 62.4439 73.8152 62.9317 72.8512C62.6367 73.1751 62.3029 73.4482 61.9061 73.6393C60.134 74.4928 58.9389 72.8062 57.2955 72.2364C55.7791 71.7099 53.7216 71.9816 52.2355 72.6044C51.2269 73.0272 49.6627 73.7711 48.9949 74.9432C48.7236 75.4203 48.5293 75.9651 48.3016 76.4926C48.7192 76.2712 49.1522 76.0917 49.5968 75.966Z" fill="white"/>
<path d="M39.4371 76.1553C40.015 74.2005 36.9842 70.258 35.8719 69.6339C32.5807 67.7887 22.9926 64.4992 21.0672 70.4936C20.8573 71.1476 21.2976 73.2191 21.4286 73.6316C22.1459 75.9513 23.7764 76.8351 25.3889 77.572C25.8681 77.7907 26.5142 77.7938 26.9009 78.2678C28.847 80.6169 26.6994 85.1122 29.5729 86.4287C30.4062 86.8087 32.1208 86.0941 32.8062 85.3604C33.8989 84.1897 33.9275 82.2928 35.0452 81.1474C36.23 79.9326 38.0923 80.6596 39.1025 79.3281C39.6163 78.6505 39.1976 76.9621 39.4371 76.1553Z" fill="#CB3E1F"/>
<path opacity="0.2" d="M39.1029 79.3285C39.6163 78.6505 39.1976 76.9625 39.4371 76.1558C39.5568 75.7504 39.5155 75.2577 39.3746 74.7289C38.2705 74.4117 37.099 74.4063 36.109 74.9726C34.8018 75.7201 34.5806 78.4701 33.6818 79.9299C32.7759 81.4009 30.4851 81.5435 30.0378 79.3094C29.4582 76.4155 28.4862 74.8772 26.6442 73.3047C25.0021 71.9027 23.525 70.5088 22.251 68.538C21.7389 69.0374 21.3302 69.6766 21.0675 70.4941C20.8577 71.1485 21.298 73.2196 21.429 73.6321C22.1463 75.9517 23.7767 76.8356 25.3892 77.5724C25.8684 77.7911 26.5145 77.7943 26.9013 78.2683C28.8473 80.6169 26.7001 85.1122 29.5732 86.4291C30.4066 86.8091 32.1212 86.0946 32.8065 85.3608C33.8993 84.1901 33.9279 82.2937 35.0455 81.1479C36.2304 79.933 38.0929 80.6596 39.1029 79.3285Z" fill="#2D0C09"/>
<path d="M37.2636 58.5943C36.3122 59.1516 35.9654 58.1092 34.6116 58.0143C33.3543 57.927 30.7491 59.6488 31.7444 61.7951C32.7384 63.9481 37.8007 63.6109 38.765 61.6165C39.3011 60.5086 38.6959 57.7541 37.2636 58.5943Z" fill="#CB3E1F"/>
<path d="M63.5915 39.936C62.8167 39.1618 62.3455 39.1782 61.163 38.8936C59.0677 38.3915 58.1089 40.909 59.6203 42.8602C61.1909 44.8867 66.7291 43.0633 63.5915 39.936Z" fill="#CB3E1F"/>
<path d="M58.624 31.5855C59.4171 28.9562 59.463 25.9126 58.3437 23.4442C57.4904 21.5616 55.545 19.585 54.0712 18.6544C53.4996 18.2935 52.9047 18.3349 52.3676 17.8748C51.5246 17.1419 51.3916 15.0985 50.812 14.0427C49.3717 11.4326 45.5512 13.8618 44.2386 15.5876C41.3146 19.4322 44.9489 22.0686 47.3326 24.4033C48.158 25.2119 49.3335 26.2517 49.7335 27.6296C50.2447 29.3883 48.9497 31.5908 49.3099 32.9335C49.3704 33.1589 51.7291 36.2443 51.9955 36.5504C53.7829 38.6019 54.2814 37.9189 56.1602 36.0042C57.2317 34.9128 58.0943 33.3416 58.624 31.5855Z" fill="#DF7032"/>
<path opacity="0.2" d="M58.624 31.5855C58.6715 31.4282 58.7161 31.2687 58.758 31.1088C56.9749 34.4455 53.6106 33.6512 52.5105 29.9287C52.058 28.3967 52.1654 26.4771 51.616 25.0279C50.9809 23.3529 49.3607 21.9986 48.3135 20.819C46.9797 19.3168 44.9549 18.4348 43.4272 16.9932C42.2167 20.0955 45.2508 22.3644 47.3322 24.4029C48.1576 25.2115 49.3331 26.2512 49.7332 27.6291C50.2443 29.3879 48.9494 31.5904 49.3095 32.9331C49.37 33.1585 51.7287 36.2439 51.9951 36.55C53.7825 38.6014 54.281 37.9185 56.1599 36.0038C57.2316 34.9128 58.0942 33.3416 58.624 31.5855Z" fill="#2D0C09"/>
<path d="M20.1786 15.9909C20.454 16.1695 20.7649 16.4047 21.1174 16.705C22.5227 17.9024 25.8631 22.9734 26.0144 25.0507C26.0736 25.8606 25.7899 26.5912 25.5608 27.2469C24.0653 31.4991 20.8613 28.7959 19.0829 31.9214C17.6187 34.4932 17.3896 38.0513 14.3129 36.1085C11.7105 34.4643 7.72196 29.2899 11.339 25.8236C13.1294 24.1085 15.2015 25.3661 16.918 23.4269C19.0453 21.0244 16.5792 13.6561 20.1786 15.9909Z" fill="#DF7032"/>
<path opacity="0.2" d="M16.2802 25.8347C17.4817 24.7807 20.1217 24.6725 20.0918 22.8941C20.0765 21.988 19.5488 20.9745 19.4184 20.0626C19.2169 18.6539 19.3313 17.3932 19.7197 16.0608C19.7493 15.9597 19.7862 15.8732 19.8205 15.7819C16.7501 14.175 18.9702 21.1099 16.9184 23.4278C15.2015 25.367 13.1297 24.1094 11.3393 25.8245C7.72229 29.2903 11.7108 34.4647 14.3133 36.1094C15.9879 37.167 16.8186 36.5932 17.4644 35.4372C14.0948 34.9926 13.5115 28.2639 16.2802 25.8347Z" fill="#2D0C09"/>
<path d="M9.0382 35.2465C11.1392 34.9351 7.50884 34.6001 6.91792 35.2679C5.05569 37.3719 6.73269 38.7249 6.82082 41.0276C6.90029 43.1205 5.61469 44.9483 8.44095 45.449C12.7583 46.2206 12.9742 38.3132 10.7781 35.0536C10.236 34.2491 7.95012 35.4078 9.0382 35.2465Z" fill="#CB3E1F"/>
<path d="M31.2353 51.5811C31.3224 51.7579 31.6307 52.1767 31.612 51.9673C31.5588 51.336 31.2938 50.7712 31.1172 50.1822C30.7963 49.1224 30.3012 48.4431 29.6777 47.5414C28.4453 45.7546 26.5175 43.9682 25.0277 42.5765C21.3156 39.1186 12.625 39.1601 10.6543 45.4739C10.3956 46.3003 10.075 46.8162 10.071 47.7557C10.0567 50.3582 12.6509 52.2364 14.2767 52.8013C16.6593 53.6232 19.1331 53.1336 21.547 53.302C24.1402 53.4797 26.3922 55.2871 28.9976 55.5833C29.5613 55.647 31.1472 55.8778 31.2163 54.7592C31.2768 53.7844 31.2436 52.6035 31.1728 51.6225C31.1472 51.3044 30.9197 50.38 30.9869 50.6905C31.0544 50.9935 31.1036 51.3173 31.2353 51.5811Z" fill="#CB3E1F"/>
<path opacity="0.2" d="M31.216 54.7587C31.2765 53.784 31.2433 52.603 31.1724 51.622C31.1648 51.528 31.1392 51.3806 31.1092 51.2278C31.1425 51.3516 31.1811 51.4719 31.2356 51.5806C31.3227 51.7574 31.631 52.1762 31.6124 51.9668C31.5592 51.3356 31.2941 50.7707 31.1176 50.1818C31.0514 49.9639 30.9762 49.7648 30.8961 49.5737C28.9996 50.4758 26.7516 49.8846 24.9423 48.9268C23.7877 48.3156 22.953 47.0589 21.8616 46.4081C20.5181 45.6071 19.177 47.7695 17.7574 48.2136C15.7562 48.8395 13.173 48.987 11.4115 47.3289C11.0391 46.9783 10.7192 46.5368 10.4565 46.0419C10.2563 46.5814 10.0744 47.0487 10.071 47.7552C10.0567 50.3577 12.6509 52.2359 14.2767 52.8008C16.6593 53.6227 19.1331 53.1331 21.547 53.3015C24.1402 53.4792 26.3921 55.2866 28.9976 55.5828C29.5606 55.6461 31.1465 55.8773 31.216 54.7587Z" fill="#2D0C09"/>
<path d="M79.6113 26.0418C79.2458 26.0819 79.2106 25.1718 78.8893 24.9343C77.9207 24.2051 72.7244 22.9662 71.8062 24.9432C71.3892 25.8409 71.5236 26.9403 71.1581 27.9004C70.8432 28.7267 68.7824 28.4795 68.9973 29.3201C70.0887 33.5611 74.983 31.527 77.4621 31.3564C78.3975 31.2936 79.2445 32.0157 80.1773 31.8955C80.9671 31.7934 82.8848 31.687 83.2855 30.4868C83.9456 28.5058 80.8746 25.909 79.6113 26.0418Z" fill="#DF7032"/>
<path d="M95.8876 49.2169C96.3418 46.0833 93.2615 44.8155 91.8655 44.8957C90.8609 44.954 89.2075 45.2431 88.3765 46.1323C87.5268 47.0424 87.6898 48.5624 86.9648 49.5911C85.659 51.4456 81.5155 52.0987 82.6245 56.2382C83.9617 61.2142 89.6983 58.9022 91.5479 55.6528C91.9383 54.9659 92.0371 53.898 92.5721 53.2931C93.593 52.1392 95.4789 54.6144 96.4961 52.8266C97.1133 51.7437 95.7333 50.2767 95.8876 49.2169Z" fill="#CB3E1F"/>
<path opacity="0.2" d="M96.4965 52.827C97.0009 51.941 96.1696 50.7979 95.9351 49.8307C94.6748 50.5439 93.3736 50.5087 92.0068 50.0628C91.4428 49.8788 90.9211 49.7385 90.3514 49.6507C90.3252 49.6467 90.3002 49.6472 90.276 49.6494C90.2497 49.677 90.2251 49.702 90.2031 49.7229C90.1955 49.7385 90.1895 49.7519 90.1805 49.7697C90.0392 50.0552 89.8836 50.3461 89.7176 50.6393C89.6308 51.822 89.0672 52.9451 88.0493 53.1741C87.2571 54.2312 86.4055 55.2015 85.6174 55.9281C84.7345 56.7424 83.7379 57.0886 82.8593 56.9233C84.5266 60.9767 89.7908 58.7409 91.5486 55.6528C91.939 54.9658 92.0378 53.898 92.5728 53.293C93.5934 52.1397 95.4792 54.6148 96.4965 52.827Z" fill="#2D0C09"/>
<path opacity="0.3" d="M26.5757 13.8025C29.0368 12.5881 29.8492 9.43319 31.9516 7.96353C34.1743 6.40924 35.5241 10.3353 37.5772 10.1388C39.0939 9.99361 38.924 8.72487 39.9721 8.08649C41.5647 7.11711 42.3458 7.31669 44.1292 7.24363C45.9213 7.17057 47.3858 5.83813 48.8959 5.66662C51.3291 5.38997 54.8254 7.01465 56.9966 8.28785C59.5182 9.76641 60.3978 11.4517 62.1257 13.8867C63.7013 16.1075 73.3822 21.5121 70.5546 25.8221C68.8616 24.5904 67.6575 23.8914 66.4151 21.8863C65.2945 20.0776 64.7883 18.2698 63.3567 16.7899C60.587 13.9268 57.4824 13.1998 54.2099 11.8531C51.0587 10.5563 48.3176 12.1832 45.0371 11.7061C41.8789 11.2468 40.7436 13.1779 37.9396 14.8997C34.8274 16.8104 32.7277 16.7498 29.3132 16.4496C29.0322 16.4251 21.0845 17.3414 21.8037 16.2491C23.0142 14.4106 24.7088 14.5861 26.3047 13.925C26.3971 13.8867 26.4876 13.8457 26.5757 13.8025Z" fill="white"/>
<path d="M69.5477 18.5247C64.3833 17.6204 60.6322 8.45231 55.4133 6.43872C51.4351 4.90402 46.2744 4.9303 42.4486 7.1809C43.5935 7.96896 45.3955 6.87664 46.6948 6.81293C48.3295 6.73319 49.966 7.09136 51.6051 7.2054C55.5201 7.47804 58.2313 8.85326 61.0845 12.6417C63.1536 15.389 65.8691 18.7747 68.7373 19.8527C71.4827 20.8849 74.4869 20.8965 77.2596 21.6423C75.8852 20.7522 74.4274 19.7463 72.9153 19.1863C71.6204 18.7061 70.1851 19.0549 69.5477 18.5247Z" fill="white"/>
<path d="M72.0094 35.617C69.6547 34.1287 61.9398 18.6917 62.4243 28.2928C62.5237 30.2623 63.2955 33.0658 62.1004 34.7439C60.9571 36.349 57.5881 35.0972 58.2605 37.6026C59.0084 40.39 61.5693 37.9202 62.6095 36.9891C64.4355 35.3546 64.9938 34.1461 67.3628 34.7648C69.3561 35.2856 70.8695 37.0765 72.7979 38.0053C75.2733 39.1979 76.7382 38.437 79.1524 37.6226C76.81 36.4256 73.588 36.6474 72.0094 35.617Z" fill="white"/>
<path opacity="0.3" d="M41.1812 25.6106C40.1391 23.0673 32.4294 20.9927 30.7574 23.585C29.5124 25.5153 31.6363 26.6428 31.1508 28.3806C30.6932 30.0196 28.2717 30.4495 27.284 30.9395C25.8594 31.6465 20.5178 34.0655 20.8909 37.0489C21.2437 39.871 29.2986 38.0227 31.4059 40.1446C32.6 41.3469 31.6756 42.6415 33.4976 42.3836C35.7904 42.0588 35.7156 38.2049 36.1137 36.1036C36.9919 31.467 38.5113 29.8093 42.1998 30.9453C43.8093 31.4411 47.3901 33.2493 46.1966 28.7023C45.5438 26.2156 43.0109 25.5736 41.3518 25.3242C41.2647 24.9918 41.4566 24.9473 41.1812 25.6106Z" fill="white"/>
<path d="M4.65996 44.3486C7.06456 50.5235 10.1662 52.0052 14.8214 53.9662C17.1439 54.9445 18.9808 55.8506 21.4842 55.9861C23.1546 56.076 25.5119 55.492 26.9568 56.7024C24.0927 56.4952 21.2478 56.4293 18.355 56.5625C15.831 56.6788 13.9824 55.3236 11.5273 54.3814C8.17193 53.0935 4.09963 49.5657 4.65996 44.3486Z" fill="white"/>
<path d="M48.1662 75.8145C50.37 69.7225 56.9347 69.645 60.8091 73.0124C59.5195 74.9659 57.8359 73.2837 56.3022 73.1942C54.5141 73.0899 47.4193 75.5334 46.7636 78.3876C47.1161 76.8547 48.1819 75.1525 48.1662 75.8145Z" fill="white"/>
<path d="M94.8736 48.2323C95.4765 45.8142 93.1274 44.3214 91.6373 44.4475C88.7815 44.6894 86.6582 48.5464 84.3261 50.3105C84.1219 50.4651 84.1924 50.9337 84.4415 50.9212C88.2185 50.7364 91.1698 42.445 94.4795 48.3619C94.5933 48.5655 94.8234 48.4337 94.8736 48.2323Z" fill="white"/>
<path d="M99.7298 25.9109C99.7427 25.8881 99.7141 25.857 99.7005 25.8792C98.1449 28.4198 96.1303 29.5723 93.8754 30.6513C93.7799 30.6971 93.7793 30.9257 93.8987 30.9096C96.3206 30.584 98.2849 28.4136 99.7298 25.9109Z" fill="white"/>
<path d="M88.8188 27.9173C87.8055 27.5284 86.7401 27.3827 85.7005 27.1658C85.5323 27.1306 85.4515 27.4674 85.6257 27.5155C86.6679 27.8037 87.7158 28.1695 88.7789 28.2826C88.9375 28.2991 88.9668 27.9739 88.8188 27.9173Z" fill="white"/>
<path d="M51.1215 43.6042C48.821 39.7151 45.9575 37.3817 42.3833 36.1798C42.2407 36.1317 42.1828 36.4083 42.3208 36.4729C45.5541 37.9755 48.5237 40.611 50.93 43.8501C51.0524 44.015 51.226 43.7806 51.1215 43.6042Z" fill="white"/>
<path d="M73.8514 43.4648C72.9705 43.978 71.9932 44.382 71.2829 45.2775C71.1698 45.42 71.2799 45.665 71.4252 45.6214C72.3753 45.3345 73.174 44.4729 73.9834 43.7833C74.1324 43.6559 74.0104 43.3721 73.8514 43.4648Z" fill="white"/>
<path d="M23.7538 26.1412C25.2239 23.1654 23.6597 19.1574 21.712 17.3875C21.545 17.236 21.3355 17.5759 21.4878 17.7603C23.3544 20.0154 23.4206 22.8892 23.3963 26.004C23.3946 26.2651 23.6507 26.3497 23.7538 26.1412Z" fill="white"/>
<path d="M34.8756 8.45715C31.5213 7.97647 28.2877 10.2391 26.5811 14.0983C26.5012 14.2792 26.6875 14.4966 26.8005 14.3353C28.9993 11.1996 31.6882 9.4488 34.8716 8.97347C35.1164 8.93694 35.1264 8.49323 34.8756 8.45715Z" fill="white"/>
<path d="M35.5118 73.8531C34.4639 71.7031 32.9173 70.2571 31.1395 69.326C29.6803 68.562 27.2029 67.5855 25.7766 68.8614C25.75 68.8854 25.756 68.9309 25.7839 68.9469C27.1886 69.7541 28.9185 69.4445 30.4083 70.156C32.2176 71.0198 33.6954 72.5611 35.133 74.2268C35.3216 74.4442 35.6701 74.1778 35.5118 73.8531Z" fill="white"/>
<path opacity="0.3" d="M114.2 29.6186C114.515 29.5852 114.841 29.5424 115.181 29.3905C117.523 28.3405 120.72 25.1232 122.425 22.7612C124.147 20.3774 126.942 19.1613 123.911 22.771C122.576 24.3605 121.902 24.9459 121.151 26.931C120.7 28.1213 120.753 29.1539 119.996 30.4209C118.224 33.3896 114.307 33.669 112.823 30.0578C113.264 29.6983 113.72 29.6694 114.2 29.6186Z" fill="white"/>
<path d="M137.32 20.1119C137.151 17.9438 134.421 16.8247 133.092 16.5298C131.282 16.128 129.021 16.3311 127.726 18.2672C127.584 18.4788 127.71 18.8035 127.925 18.747C129.709 18.2774 131.323 17.5 133.173 17.9767C133.997 18.1892 134.772 18.5781 135.513 19.1056C136.079 19.5083 136.585 20.1511 137.234 20.2251C137.276 20.23 137.325 20.1703 137.32 20.1119Z" fill="white"/>
<path d="M122.29 23.2242C122.333 23.16 122.267 23.0647 122.22 23.1261C119.41 26.7965 116.035 28.5998 112.343 30.0187C112.068 30.1243 112.094 30.7613 112.406 30.7186C116.37 30.1737 119.707 27.0985 122.29 23.2242Z" fill="white"/>
</svg>
