<svg width="524" height="472" viewBox="0 0 524 472" fill="none" xmlns="http://www.w3.org/2000/svg">
<rect y="412" width="174" height="60" rx="16" fill="#F94A3D"/>
<path d="M39.262 436.472H32.35V449H39.262V447.326H34.402V443.492H38.722V441.818H34.402V438.146H39.262V436.472ZM46.7395 449H49.0615L45.8575 443.978L49.0615 439.082H46.9195L44.9035 442.448L42.7615 439.082H40.4395L43.6435 444.122L40.4395 449H42.5815L44.5975 445.634L46.7395 449ZM52.4639 440.54V439.082H50.4119V453.716H52.4639V447.56C53.1119 448.334 54.2819 449.162 55.9199 449.162C58.5299 449.162 60.5819 447.056 60.5819 443.996C60.5819 440.936 58.5299 438.92 55.9199 438.92C54.2999 438.92 53.0939 439.712 52.4639 440.54ZM58.4939 443.996C58.4939 446.138 57.0179 447.38 55.4699 447.38C53.9399 447.38 52.4639 446.174 52.4639 444.032C52.4639 441.908 53.9399 440.702 55.4699 440.702C57.0179 440.702 58.4939 441.854 58.4939 443.996ZM62.4311 449H64.4831V435.68H62.4311V449ZM76.4472 444.032C76.4472 440.918 74.2152 438.92 71.3892 438.92C68.5632 438.92 66.3312 440.918 66.3312 444.032C66.3312 447.146 68.4732 449.162 71.2992 449.162C74.1432 449.162 76.4472 447.146 76.4472 444.032ZM68.4192 444.032C68.4192 441.782 69.8052 440.702 71.3532 440.702C72.8832 440.702 74.3412 441.782 74.3412 444.032C74.3412 446.282 72.8292 447.38 71.2992 447.38C69.7512 447.38 68.4192 446.282 68.4192 444.032ZM80.3477 443.78C80.3477 441.674 81.2837 441.044 82.7957 441.044H83.3177V438.92C81.9137 438.92 80.9237 439.532 80.3477 440.522V439.082H78.2957V449H80.3477V443.78ZM89.1999 440.648C90.7299 440.648 91.9359 441.62 91.9719 443.15H86.4819C86.6979 441.584 87.8139 440.648 89.1999 440.648ZM93.8439 446.048H91.6299C91.2519 446.822 90.5499 447.434 89.2899 447.434C87.7779 447.434 86.6079 446.444 86.4639 444.806H94.0419C94.0959 444.464 94.1139 444.14 94.1139 443.798C94.1139 440.882 92.1159 438.92 89.2899 438.92C86.3559 438.92 84.3399 440.918 84.3399 444.032C84.3399 447.146 86.4459 449.162 89.2899 449.162C91.7199 449.162 93.2859 447.776 93.8439 446.048ZM100.449 449H102.501V443.528H106.641V441.854H102.501V438.164H107.811V436.49H100.449V449ZM118.983 444.032C118.983 440.918 116.751 438.92 113.925 438.92C111.099 438.92 108.867 440.918 108.867 444.032C108.867 447.146 111.009 449.162 113.835 449.162C116.679 449.162 118.983 447.146 118.983 444.032ZM110.955 444.032C110.955 441.782 112.341 440.702 113.889 440.702C115.419 440.702 116.877 441.782 116.877 444.032C116.877 446.282 115.365 447.38 113.835 447.38C112.287 447.38 110.955 446.282 110.955 444.032ZM130.281 444.032C130.281 440.918 128.049 438.92 125.223 438.92C122.397 438.92 120.165 440.918 120.165 444.032C120.165 447.146 122.307 449.162 125.133 449.162C127.977 449.162 130.281 447.146 130.281 444.032ZM122.253 444.032C122.253 441.782 123.639 440.702 125.187 440.702C126.717 440.702 128.175 441.782 128.175 444.032C128.175 446.282 126.663 447.38 125.133 447.38C123.585 447.38 122.253 446.282 122.253 444.032ZM131.446 443.996C131.446 447.056 133.516 449.162 136.126 449.162C137.746 449.162 138.934 448.406 139.564 447.506V449H141.634V435.68H139.564V440.468C138.808 439.532 137.44 438.92 136.144 438.92C133.516 438.92 131.446 440.936 131.446 443.996ZM139.564 444.032C139.564 446.174 138.106 447.38 136.558 447.38C135.028 447.38 133.552 446.138 133.552 443.996C133.552 441.854 135.028 440.702 136.558 440.702C138.106 440.702 139.564 441.908 139.564 444.032Z" fill="#F6F6F6"/>
<path d="M8.478 292.454V293.786H3.024V298.016H7.452V299.348H3.024V305H1.386V292.454H8.478ZM14.7583 305.162C13.8343 305.162 12.9943 304.952 12.2383 304.532C11.4943 304.112 10.9063 303.518 10.4743 302.75C10.0543 301.97 9.84431 301.07 9.84431 300.05C9.84431 299.042 10.0603 298.154 10.4923 297.386C10.9363 296.606 11.5363 296.012 12.2923 295.604C13.0483 295.184 13.8943 294.974 14.8303 294.974C15.7663 294.974 16.6123 295.184 17.3683 295.604C18.1243 296.012 18.7183 296.6 19.1503 297.368C19.5943 298.136 19.8163 299.03 19.8163 300.05C19.8163 301.07 19.5883 301.97 19.1323 302.75C18.6883 303.518 18.0823 304.112 17.3143 304.532C16.5463 304.952 15.6943 305.162 14.7583 305.162ZM14.7583 303.722C15.3463 303.722 15.8983 303.584 16.4143 303.308C16.9303 303.032 17.3443 302.618 17.6563 302.066C17.9803 301.514 18.1423 300.842 18.1423 300.05C18.1423 299.258 17.9863 298.586 17.6743 298.034C17.3623 297.482 16.9543 297.074 16.4503 296.81C15.9463 296.534 15.4003 296.396 14.8123 296.396C14.2123 296.396 13.6603 296.534 13.1563 296.81C12.6643 297.074 12.2683 297.482 11.9683 298.034C11.6683 298.586 11.5183 299.258 11.5183 300.05C11.5183 300.854 11.6623 301.532 11.9503 302.084C12.2503 302.636 12.6463 303.05 13.1383 303.326C13.6303 303.59 14.1703 303.722 14.7583 303.722ZM26.272 305.162C25.348 305.162 24.508 304.952 23.752 304.532C23.008 304.112 22.42 303.518 21.988 302.75C21.568 301.97 21.358 301.07 21.358 300.05C21.358 299.042 21.574 298.154 22.006 297.386C22.45 296.606 23.05 296.012 23.806 295.604C24.562 295.184 25.408 294.974 26.344 294.974C27.28 294.974 28.126 295.184 28.882 295.604C29.638 296.012 30.232 296.6 30.664 297.368C31.108 298.136 31.33 299.03 31.33 300.05C31.33 301.07 31.102 301.97 30.646 302.75C30.202 303.518 29.596 304.112 28.828 304.532C28.06 304.952 27.208 305.162 26.272 305.162ZM26.272 303.722C26.86 303.722 27.412 303.584 27.928 303.308C28.444 303.032 28.858 302.618 29.17 302.066C29.494 301.514 29.656 300.842 29.656 300.05C29.656 299.258 29.5 298.586 29.188 298.034C28.876 297.482 28.468 297.074 27.964 296.81C27.46 296.534 26.914 296.396 26.326 296.396C25.726 296.396 25.174 296.534 24.67 296.81C24.178 297.074 23.782 297.482 23.482 298.034C23.182 298.586 23.032 299.258 23.032 300.05C23.032 300.854 23.176 301.532 23.464 302.084C23.764 302.636 24.16 303.05 24.652 303.326C25.144 303.59 25.684 303.722 26.272 303.722ZM32.8717 300.032C32.8717 299.024 33.0757 298.142 33.4837 297.386C33.8917 296.618 34.4497 296.024 35.1577 295.604C35.8777 295.184 36.6817 294.974 37.5697 294.974C38.3377 294.974 39.0517 295.154 39.7117 295.514C40.3717 295.862 40.8757 296.324 41.2237 296.9V291.68H42.8797V305H41.2237V303.146C40.8997 303.734 40.4197 304.22 39.7837 304.604C39.1477 304.976 38.4037 305.162 37.5517 305.162C36.6757 305.162 35.8777 304.946 35.1577 304.514C34.4497 304.082 33.8917 303.476 33.4837 302.696C33.0757 301.916 32.8717 301.028 32.8717 300.032ZM41.2237 300.05C41.2237 299.306 41.0737 298.658 40.7737 298.106C40.4737 297.554 40.0657 297.134 39.5497 296.846C39.0457 296.546 38.4877 296.396 37.8757 296.396C37.2637 296.396 36.7057 296.54 36.2017 296.828C35.6977 297.116 35.2957 297.536 34.9957 298.088C34.6957 298.64 34.5457 299.288 34.5457 300.032C34.5457 300.788 34.6957 301.448 34.9957 302.012C35.2957 302.564 35.6977 302.99 36.2017 303.29C36.7057 303.578 37.2637 303.722 37.8757 303.722C38.4877 303.722 39.0457 303.578 39.5497 303.29C40.0657 302.99 40.4737 302.564 40.7737 302.012C41.0737 301.448 41.2237 300.794 41.2237 300.05ZM52.4445 296.486V302.3C52.4445 302.78 52.5465 303.122 52.7505 303.326C52.9545 303.518 53.3085 303.614 53.8125 303.614H55.0185V305H53.5425C52.6305 305 51.9465 304.79 51.4905 304.37C51.0345 303.95 50.8065 303.26 50.8065 302.3V296.486H49.5285V295.136H50.8065V292.652H52.4445V295.136H55.0185V296.486H52.4445ZM61.8992 294.956C62.6432 294.956 63.3152 295.118 63.9152 295.442C64.5152 295.754 64.9832 296.228 65.3192 296.864C65.6672 297.5 65.8412 298.274 65.8412 299.186V305H64.2212V299.42C64.2212 298.436 63.9752 297.686 63.4832 297.17C62.9912 296.642 62.3192 296.378 61.4672 296.378C60.6032 296.378 59.9132 296.648 59.3972 297.188C58.8932 297.728 58.6412 298.514 58.6412 299.546V305H57.0032V291.68H58.6412V296.54C58.9652 296.036 59.4092 295.646 59.9732 295.37C60.5492 295.094 61.1912 294.956 61.8992 294.956ZM67.9049 300.032C67.9049 299.024 68.1089 298.142 68.5169 297.386C68.9249 296.618 69.4829 296.024 70.1909 295.604C70.9109 295.184 71.7089 294.974 72.5849 294.974C73.4489 294.974 74.1989 295.16 74.8349 295.532C75.4709 295.904 75.9449 296.372 76.2569 296.936V295.136H77.9129V305H76.2569V303.164C75.9329 303.74 75.4469 304.22 74.7989 304.604C74.1629 304.976 73.4189 305.162 72.5669 305.162C71.6909 305.162 70.8989 304.946 70.1909 304.514C69.4829 304.082 68.9249 303.476 68.5169 302.696C68.1089 301.916 67.9049 301.028 67.9049 300.032ZM76.2569 300.05C76.2569 299.306 76.1069 298.658 75.8069 298.106C75.5069 297.554 75.0989 297.134 74.5829 296.846C74.0789 296.546 73.5209 296.396 72.9089 296.396C72.2969 296.396 71.7389 296.54 71.2349 296.828C70.7309 297.116 70.3289 297.536 70.0289 298.088C69.7289 298.64 69.5789 299.288 69.5789 300.032C69.5789 300.788 69.7289 301.448 70.0289 302.012C70.3289 302.564 70.7309 302.99 71.2349 303.29C71.7389 303.578 72.2969 303.722 72.9089 303.722C73.5209 303.722 74.0789 303.578 74.5829 303.29C75.0989 302.99 75.5069 302.564 75.8069 302.012C76.1069 301.448 76.2569 300.794 76.2569 300.05ZM82.6789 296.486V302.3C82.6789 302.78 82.7809 303.122 82.9849 303.326C83.1889 303.518 83.5429 303.614 84.0469 303.614H85.2529V305H83.7769C82.8649 305 82.1809 304.79 81.7249 304.37C81.2689 303.95 81.0409 303.26 81.0409 302.3V296.486H79.7629V295.136H81.0409V292.652H82.6789V295.136H85.2529V296.486H82.6789ZM92.8824 293.534C92.5704 293.534 92.3064 293.426 92.0904 293.21C91.8744 292.994 91.7664 292.73 91.7664 292.418C91.7664 292.106 91.8744 291.842 92.0904 291.626C92.3064 291.41 92.5704 291.302 92.8824 291.302C93.1824 291.302 93.4344 291.41 93.6384 291.626C93.8544 291.842 93.9624 292.106 93.9624 292.418C93.9624 292.73 93.8544 292.994 93.6384 293.21C93.4344 293.426 93.1824 293.534 92.8824 293.534ZM93.6744 295.136V305H92.0364V295.136H93.6744ZM99.9581 305.162C99.2021 305.162 98.5241 305.036 97.9241 304.784C97.3241 304.52 96.8501 304.16 96.5021 303.704C96.1541 303.236 95.9621 302.702 95.9261 302.102H97.6181C97.6661 302.594 97.8941 302.996 98.3021 303.308C98.7221 303.62 99.2681 303.776 99.9401 303.776C100.564 303.776 101.056 303.638 101.416 303.362C101.776 303.086 101.956 302.738 101.956 302.318C101.956 301.886 101.764 301.568 101.38 301.364C100.996 301.148 100.402 300.938 99.5981 300.734C98.8661 300.542 98.2661 300.35 97.7981 300.158C97.3421 299.954 96.9461 299.66 96.6101 299.276C96.2861 298.88 96.1241 298.364 96.1241 297.728C96.1241 297.224 96.2741 296.762 96.5741 296.342C96.8741 295.922 97.3001 295.592 97.8521 295.352C98.4041 295.1 99.0341 294.974 99.7421 294.974C100.834 294.974 101.716 295.25 102.388 295.802C103.06 296.354 103.42 297.11 103.468 298.07H101.83C101.794 297.554 101.584 297.14 101.2 296.828C100.828 296.516 100.324 296.36 99.6881 296.36C99.1001 296.36 98.6321 296.486 98.2841 296.738C97.9361 296.99 97.7621 297.32 97.7621 297.728C97.7621 298.052 97.8641 298.322 98.0681 298.538C98.2841 298.742 98.5481 298.91 98.8601 299.042C99.1841 299.162 99.6281 299.3 100.192 299.456C100.9 299.648 101.476 299.84 101.92 300.032C102.364 300.212 102.742 300.488 103.054 300.86C103.378 301.232 103.546 301.718 103.558 302.318C103.558 302.858 103.408 303.344 103.108 303.776C102.808 304.208 102.382 304.55 101.83 304.802C101.29 305.042 100.666 305.162 99.9581 305.162ZM110.057 300.032C110.057 299.024 110.261 298.142 110.669 297.386C111.077 296.618 111.635 296.024 112.343 295.604C113.063 295.184 113.867 294.974 114.755 294.974C115.523 294.974 116.237 295.154 116.897 295.514C117.557 295.862 118.061 296.324 118.409 296.9V291.68H120.065V305H118.409V303.146C118.085 303.734 117.605 304.22 116.969 304.604C116.333 304.976 115.589 305.162 114.737 305.162C113.861 305.162 113.063 304.946 112.343 304.514C111.635 304.082 111.077 303.476 110.669 302.696C110.261 301.916 110.057 301.028 110.057 300.032ZM118.409 300.05C118.409 299.306 118.259 298.658 117.959 298.106C117.659 297.554 117.251 297.134 116.735 296.846C116.231 296.546 115.673 296.396 115.061 296.396C114.449 296.396 113.891 296.54 113.387 296.828C112.883 297.116 112.481 297.536 112.181 298.088C111.881 298.64 111.731 299.288 111.731 300.032C111.731 300.788 111.881 301.448 112.181 302.012C112.481 302.564 112.883 302.99 113.387 303.29C113.891 303.578 114.449 303.722 115.061 303.722C115.673 303.722 116.231 303.578 116.735 303.29C117.251 302.99 117.659 302.564 117.959 302.012C118.259 301.448 118.409 300.794 118.409 300.05ZM131.833 299.69C131.833 300.002 131.815 300.332 131.779 300.68H123.895C123.955 301.652 124.285 302.414 124.885 302.966C125.497 303.506 126.235 303.776 127.099 303.776C127.807 303.776 128.395 303.614 128.863 303.29C129.343 302.954 129.679 302.51 129.871 301.958H131.635C131.371 302.906 130.843 303.68 130.051 304.28C129.259 304.868 128.275 305.162 127.099 305.162C126.163 305.162 125.323 304.952 124.579 304.532C123.847 304.112 123.271 303.518 122.851 302.75C122.431 301.97 122.221 301.07 122.221 300.05C122.221 299.03 122.425 298.136 122.833 297.368C123.241 296.6 123.811 296.012 124.543 295.604C125.287 295.184 126.139 294.974 127.099 294.974C128.035 294.974 128.863 295.178 129.583 295.586C130.303 295.994 130.855 296.558 131.239 297.278C131.635 297.986 131.833 298.79 131.833 299.69ZM130.141 299.348C130.141 298.724 130.003 298.19 129.727 297.746C129.451 297.29 129.073 296.948 128.593 296.72C128.125 296.48 127.603 296.36 127.027 296.36C126.199 296.36 125.491 296.624 124.903 297.152C124.327 297.68 123.997 298.412 123.913 299.348H130.141ZM135.633 291.68V305H133.995V291.68H135.633ZM139.271 293.534C138.959 293.534 138.695 293.426 138.479 293.21C138.263 292.994 138.155 292.73 138.155 292.418C138.155 292.106 138.263 291.842 138.479 291.626C138.695 291.41 138.959 291.302 139.271 291.302C139.571 291.302 139.823 291.41 140.027 291.626C140.243 291.842 140.351 292.106 140.351 292.418C140.351 292.73 140.243 292.994 140.027 293.21C139.823 293.426 139.571 293.534 139.271 293.534ZM140.063 295.136V305H138.425V295.136H140.063ZM146.527 303.488L149.587 295.136H151.333L147.463 305H145.555L141.685 295.136H143.449L146.527 303.488ZM161.945 299.69C161.945 300.002 161.927 300.332 161.891 300.68H154.007C154.067 301.652 154.397 302.414 154.997 302.966C155.609 303.506 156.347 303.776 157.211 303.776C157.919 303.776 158.507 303.614 158.975 303.29C159.455 302.954 159.791 302.51 159.983 301.958H161.747C161.483 302.906 160.955 303.68 160.163 304.28C159.371 304.868 158.387 305.162 157.211 305.162C156.275 305.162 155.435 304.952 154.691 304.532C153.959 304.112 153.383 303.518 152.963 302.75C152.543 301.97 152.333 301.07 152.333 300.05C152.333 299.03 152.537 298.136 152.945 297.368C153.353 296.6 153.923 296.012 154.655 295.604C155.399 295.184 156.251 294.974 157.211 294.974C158.147 294.974 158.975 295.178 159.695 295.586C160.415 295.994 160.967 296.558 161.351 297.278C161.747 297.986 161.945 298.79 161.945 299.69ZM160.253 299.348C160.253 298.724 160.115 298.19 159.839 297.746C159.563 297.29 159.185 296.948 158.705 296.72C158.237 296.48 157.715 296.36 157.139 296.36C156.311 296.36 155.603 296.624 155.015 297.152C154.439 297.68 154.109 298.412 154.025 299.348H160.253ZM165.745 296.738C166.033 296.174 166.441 295.736 166.969 295.424C167.509 295.112 168.163 294.956 168.931 294.956V296.648H168.499C166.663 296.648 165.745 297.644 165.745 299.636V305H164.107V295.136H165.745V296.738ZM179.822 299.69C179.822 300.002 179.804 300.332 179.768 300.68H171.884C171.944 301.652 172.274 302.414 172.874 302.966C173.486 303.506 174.224 303.776 175.088 303.776C175.796 303.776 176.384 303.614 176.852 303.29C177.332 302.954 177.668 302.51 177.86 301.958H179.624C179.36 302.906 178.832 303.68 178.04 304.28C177.248 304.868 176.264 305.162 175.088 305.162C174.152 305.162 173.312 304.952 172.568 304.532C171.836 304.112 171.26 303.518 170.84 302.75C170.42 301.97 170.21 301.07 170.21 300.05C170.21 299.03 170.414 298.136 170.822 297.368C171.23 296.6 171.8 296.012 172.532 295.604C173.276 295.184 174.128 294.974 175.088 294.974C176.024 294.974 176.852 295.178 177.572 295.586C178.292 295.994 178.844 296.558 179.228 297.278C179.624 297.986 179.822 298.79 179.822 299.69ZM178.13 299.348C178.13 298.724 177.992 298.19 177.716 297.746C177.44 297.29 177.062 296.948 176.582 296.72C176.114 296.48 175.592 296.36 175.016 296.36C174.188 296.36 173.48 296.624 172.892 297.152C172.316 297.68 171.986 298.412 171.902 299.348H178.13ZM181.372 300.032C181.372 299.024 181.576 298.142 181.984 297.386C182.392 296.618 182.95 296.024 183.658 295.604C184.378 295.184 185.182 294.974 186.07 294.974C186.838 294.974 187.552 295.154 188.212 295.514C188.872 295.862 189.376 296.324 189.724 296.9V291.68H191.38V305H189.724V303.146C189.4 303.734 188.92 304.22 188.284 304.604C187.648 304.976 186.904 305.162 186.052 305.162C185.176 305.162 184.378 304.946 183.658 304.514C182.95 304.082 182.392 303.476 181.984 302.696C181.576 301.916 181.372 301.028 181.372 300.032ZM189.724 300.05C189.724 299.306 189.574 298.658 189.274 298.106C188.974 297.554 188.566 297.134 188.05 296.846C187.546 296.546 186.988 296.396 186.376 296.396C185.764 296.396 185.206 296.54 184.702 296.828C184.198 297.116 183.796 297.536 183.496 298.088C183.196 298.64 183.046 299.288 183.046 300.032C183.046 300.788 183.196 301.448 183.496 302.012C183.796 302.564 184.198 302.99 184.702 303.29C185.206 303.578 185.764 303.722 186.376 303.722C186.988 303.722 187.546 303.578 188.05 303.29C188.566 302.99 188.974 302.564 189.274 302.012C189.574 301.448 189.724 300.794 189.724 300.05ZM198.335 300.032C198.335 299.024 198.539 298.142 198.947 297.386C199.355 296.618 199.913 296.024 200.621 295.604C201.341 295.184 202.139 294.974 203.015 294.974C203.879 294.974 204.629 295.16 205.265 295.532C205.901 295.904 206.375 296.372 206.687 296.936V295.136H208.343V305H206.687V303.164C206.363 303.74 205.877 304.22 205.229 304.604C204.593 304.976 203.849 305.162 202.997 305.162C202.121 305.162 201.329 304.946 200.621 304.514C199.913 304.082 199.355 303.476 198.947 302.696C198.539 301.916 198.335 301.028 198.335 300.032ZM206.687 300.05C206.687 299.306 206.537 298.658 206.237 298.106C205.937 297.554 205.529 297.134 205.013 296.846C204.509 296.546 203.951 296.396 203.339 296.396C202.727 296.396 202.169 296.54 201.665 296.828C201.161 297.116 200.759 297.536 200.459 298.088C200.159 298.64 200.009 299.288 200.009 300.032C200.009 300.788 200.159 301.448 200.459 302.012C200.759 302.564 201.161 302.99 201.665 303.29C202.169 303.578 202.727 303.722 203.339 303.722C203.951 303.722 204.509 303.578 205.013 303.29C205.529 302.99 205.937 302.564 206.237 302.012C206.537 301.448 206.687 300.794 206.687 300.05ZM213.109 296.486V302.3C213.109 302.78 213.211 303.122 213.415 303.326C213.619 303.518 213.973 303.614 214.477 303.614H215.683V305H214.207C213.295 305 212.611 304.79 212.155 304.37C211.699 303.95 211.471 303.26 211.471 302.3V296.486H210.193V295.136H211.471V292.652H213.109V295.136H215.683V296.486H213.109ZM224.464 296.486V302.3C224.464 302.78 224.566 303.122 224.77 303.326C224.974 303.518 225.328 303.614 225.832 303.614H227.038V305H225.562C224.65 305 223.966 304.79 223.51 304.37C223.054 303.95 222.826 303.26 222.826 302.3V296.486H221.548V295.136H222.826V292.652H224.464V295.136H227.038V296.486H224.464ZM233.919 294.956C234.663 294.956 235.335 295.118 235.935 295.442C236.535 295.754 237.003 296.228 237.339 296.864C237.687 297.5 237.861 298.274 237.861 299.186V305H236.241V299.42C236.241 298.436 235.995 297.686 235.503 297.17C235.011 296.642 234.339 296.378 233.487 296.378C232.623 296.378 231.933 296.648 231.417 297.188C230.913 297.728 230.661 298.514 230.661 299.546V305H229.023V291.68H230.661V296.54C230.985 296.036 231.429 295.646 231.993 295.37C232.569 295.094 233.211 294.956 233.919 294.956ZM249.536 299.69C249.536 300.002 249.518 300.332 249.482 300.68H241.598C241.658 301.652 241.988 302.414 242.588 302.966C243.2 303.506 243.938 303.776 244.802 303.776C245.51 303.776 246.098 303.614 246.566 303.29C247.046 302.954 247.382 302.51 247.574 301.958H249.338C249.074 302.906 248.546 303.68 247.754 304.28C246.962 304.868 245.978 305.162 244.802 305.162C243.866 305.162 243.026 304.952 242.282 304.532C241.55 304.112 240.974 303.518 240.554 302.75C240.134 301.97 239.924 301.07 239.924 300.05C239.924 299.03 240.128 298.136 240.536 297.368C240.944 296.6 241.514 296.012 242.246 295.604C242.99 295.184 243.842 294.974 244.802 294.974C245.738 294.974 246.566 295.178 247.286 295.586C248.006 295.994 248.558 296.558 248.942 297.278C249.338 297.986 249.536 298.79 249.536 299.69ZM247.844 299.348C247.844 298.724 247.706 298.19 247.43 297.746C247.154 297.29 246.776 296.948 246.296 296.72C245.828 296.48 245.306 296.36 244.73 296.36C243.902 296.36 243.194 296.624 242.606 297.152C242.03 297.68 241.7 298.412 241.616 299.348H247.844ZM258.135 296.738C258.423 296.174 258.831 295.736 259.359 295.424C259.899 295.112 260.553 294.956 261.321 294.956V296.648H260.889C259.053 296.648 258.135 297.644 258.135 299.636V305H256.497V295.136H258.135V296.738ZM264.058 293.534C263.746 293.534 263.482 293.426 263.266 293.21C263.05 292.994 262.942 292.73 262.942 292.418C262.942 292.106 263.05 291.842 263.266 291.626C263.482 291.41 263.746 291.302 264.058 291.302C264.358 291.302 264.61 291.41 264.814 291.626C265.03 291.842 265.138 292.106 265.138 292.418C265.138 292.73 265.03 292.994 264.814 293.21C264.61 293.426 264.358 293.534 264.058 293.534ZM264.85 295.136V305H263.212V295.136H264.85ZM271.71 294.974C272.562 294.974 273.306 295.16 273.942 295.532C274.59 295.904 275.07 296.372 275.382 296.936V295.136H277.038V305.216C277.038 306.116 276.846 306.914 276.462 307.61C276.078 308.318 275.526 308.87 274.806 309.266C274.098 309.662 273.27 309.86 272.322 309.86C271.026 309.86 269.946 309.554 269.082 308.942C268.218 308.33 267.708 307.496 267.552 306.44H269.172C269.352 307.04 269.724 307.52 270.288 307.88C270.852 308.252 271.53 308.438 272.322 308.438C273.222 308.438 273.954 308.156 274.518 307.592C275.094 307.028 275.382 306.236 275.382 305.216V303.146C275.058 303.722 274.578 304.202 273.942 304.586C273.306 304.97 272.562 305.162 271.71 305.162C270.834 305.162 270.036 304.946 269.316 304.514C268.608 304.082 268.05 303.476 267.642 302.696C267.234 301.916 267.03 301.028 267.03 300.032C267.03 299.024 267.234 298.142 267.642 297.386C268.05 296.618 268.608 296.024 269.316 295.604C270.036 295.184 270.834 294.974 271.71 294.974ZM275.382 300.05C275.382 299.306 275.232 298.658 274.932 298.106C274.632 297.554 274.224 297.134 273.708 296.846C273.204 296.546 272.646 296.396 272.034 296.396C271.422 296.396 270.864 296.54 270.36 296.828C269.856 297.116 269.454 297.536 269.154 298.088C268.854 298.64 268.704 299.288 268.704 300.032C268.704 300.788 268.854 301.448 269.154 302.012C269.454 302.564 269.856 302.99 270.36 303.29C270.864 303.578 271.422 303.722 272.034 303.722C272.646 303.722 273.204 303.578 273.708 303.29C274.224 302.99 274.632 302.564 274.932 302.012C275.232 301.448 275.382 300.794 275.382 300.05ZM284.702 294.956C285.446 294.956 286.118 295.118 286.718 295.442C287.318 295.754 287.786 296.228 288.122 296.864C288.47 297.5 288.644 298.274 288.644 299.186V305H287.024V299.42C287.024 298.436 286.778 297.686 286.286 297.17C285.794 296.642 285.122 296.378 284.27 296.378C283.406 296.378 282.716 296.648 282.2 297.188C281.696 297.728 281.444 298.514 281.444 299.546V305H279.806V291.68H281.444V296.54C281.768 296.036 282.212 295.646 282.776 295.37C283.352 295.094 283.994 294.956 284.702 294.956ZM293.318 296.486V302.3C293.318 302.78 293.42 303.122 293.624 303.326C293.828 303.518 294.182 303.614 294.686 303.614H295.892V305H294.416C293.504 305 292.82 304.79 292.364 304.37C291.908 303.95 291.68 303.26 291.68 302.3V296.486H290.402V295.136H291.68V292.652H293.318V295.136H295.892V296.486H293.318ZM304.673 296.486V302.3C304.673 302.78 304.775 303.122 304.979 303.326C305.183 303.518 305.537 303.614 306.041 303.614H307.247V305H305.771C304.859 305 304.175 304.79 303.719 304.37C303.263 303.95 303.035 303.26 303.035 302.3V296.486H301.757V295.136H303.035V292.652H304.673V295.136H307.247V296.486H304.673ZM310.078 293.534C309.766 293.534 309.502 293.426 309.286 293.21C309.07 292.994 308.962 292.73 308.962 292.418C308.962 292.106 309.07 291.842 309.286 291.626C309.502 291.41 309.766 291.302 310.078 291.302C310.378 291.302 310.63 291.41 310.834 291.626C311.05 291.842 311.158 292.106 311.158 292.418C311.158 292.73 311.05 292.994 310.834 293.21C310.63 293.426 310.378 293.534 310.078 293.534ZM310.87 295.136V305H309.232V295.136H310.87ZM325.523 294.956C326.291 294.956 326.975 295.118 327.575 295.442C328.175 295.754 328.649 296.228 328.997 296.864C329.345 297.5 329.519 298.274 329.519 299.186V305H327.899V299.42C327.899 298.436 327.653 297.686 327.161 297.17C326.681 296.642 326.027 296.378 325.199 296.378C324.347 296.378 323.669 296.654 323.165 297.206C322.661 297.746 322.409 298.532 322.409 299.564V305H320.789V299.42C320.789 298.436 320.543 297.686 320.051 297.17C319.571 296.642 318.917 296.378 318.089 296.378C317.237 296.378 316.559 296.654 316.055 297.206C315.551 297.746 315.299 298.532 315.299 299.564V305H313.661V295.136H315.299V296.558C315.623 296.042 316.055 295.646 316.595 295.37C317.147 295.094 317.753 294.956 318.413 294.956C319.241 294.956 319.973 295.142 320.609 295.514C321.245 295.886 321.719 296.432 322.031 297.152C322.307 296.456 322.763 295.916 323.399 295.532C324.035 295.148 324.743 294.956 325.523 294.956ZM341.206 299.69C341.206 300.002 341.188 300.332 341.152 300.68H333.268C333.328 301.652 333.658 302.414 334.258 302.966C334.87 303.506 335.608 303.776 336.472 303.776C337.18 303.776 337.768 303.614 338.236 303.29C338.716 302.954 339.052 302.51 339.244 301.958H341.008C340.744 302.906 340.216 303.68 339.424 304.28C338.632 304.868 337.648 305.162 336.472 305.162C335.536 305.162 334.696 304.952 333.952 304.532C333.22 304.112 332.644 303.518 332.224 302.75C331.804 301.97 331.594 301.07 331.594 300.05C331.594 299.03 331.798 298.136 332.206 297.368C332.614 296.6 333.184 296.012 333.916 295.604C334.66 295.184 335.512 294.974 336.472 294.974C337.408 294.974 338.236 295.178 338.956 295.586C339.676 295.994 340.228 296.558 340.612 297.278C341.008 297.986 341.206 298.79 341.206 299.69ZM339.514 299.348C339.514 298.724 339.376 298.19 339.1 297.746C338.824 297.29 338.446 296.948 337.966 296.72C337.498 296.48 336.976 296.36 336.4 296.36C335.572 296.36 334.864 296.624 334.276 297.152C333.7 297.68 333.37 298.412 333.286 299.348H339.514ZM343.89 305.108C343.578 305.108 343.314 305 343.098 304.784C342.882 304.568 342.774 304.304 342.774 303.992C342.774 303.68 342.882 303.416 343.098 303.2C343.314 302.984 343.578 302.876 343.89 302.876C344.19 302.876 344.442 302.984 344.646 303.2C344.862 303.416 344.97 303.68 344.97 303.992C344.97 304.304 344.862 304.568 344.646 304.784C344.442 305 344.19 305.108 343.89 305.108ZM359.669 292.454V293.786H356.249V305H354.611V293.786H351.173V292.454H359.669ZM366.581 294.956C367.325 294.956 367.997 295.118 368.597 295.442C369.197 295.754 369.665 296.228 370.001 296.864C370.349 297.5 370.523 298.274 370.523 299.186V305H368.903V299.42C368.903 298.436 368.657 297.686 368.165 297.17C367.673 296.642 367.001 296.378 366.149 296.378C365.285 296.378 364.595 296.648 364.079 297.188C363.575 297.728 363.323 298.514 363.323 299.546V305H361.685V291.68H363.323V296.54C363.647 296.036 364.091 295.646 364.655 295.37C365.231 295.094 365.873 294.956 366.581 294.956ZM382.199 299.69C382.199 300.002 382.181 300.332 382.145 300.68H374.261C374.321 301.652 374.651 302.414 375.251 302.966C375.863 303.506 376.601 303.776 377.465 303.776C378.173 303.776 378.761 303.614 379.229 303.29C379.709 302.954 380.045 302.51 380.237 301.958H382.001C381.737 302.906 381.209 303.68 380.417 304.28C379.625 304.868 378.641 305.162 377.465 305.162C376.529 305.162 375.689 304.952 374.945 304.532C374.213 304.112 373.637 303.518 373.217 302.75C372.797 301.97 372.587 301.07 372.587 300.05C372.587 299.03 372.791 298.136 373.199 297.368C373.607 296.6 374.177 296.012 374.909 295.604C375.653 295.184 376.505 294.974 377.465 294.974C378.401 294.974 379.229 295.178 379.949 295.586C380.669 295.994 381.221 296.558 381.605 297.278C382.001 297.986 382.199 298.79 382.199 299.69ZM380.507 299.348C380.507 298.724 380.369 298.19 380.093 297.746C379.817 297.29 379.439 296.948 378.959 296.72C378.491 296.48 377.969 296.36 377.393 296.36C376.565 296.36 375.857 296.624 375.269 297.152C374.693 297.68 374.363 298.412 374.279 299.348H380.507ZM391.157 296.486V302.3C391.157 302.78 391.259 303.122 391.463 303.326C391.667 303.518 392.021 303.614 392.525 303.614H393.731V305H392.255C391.343 305 390.659 304.79 390.203 304.37C389.747 303.95 389.519 303.26 389.519 302.3V296.486H388.241V295.136H389.519V292.652H391.157V295.136H393.731V296.486H391.157ZM397.354 296.738C397.642 296.174 398.05 295.736 398.578 295.424C399.118 295.112 399.772 294.956 400.54 294.956V296.648H400.108C398.272 296.648 397.354 297.644 397.354 299.636V305H395.716V295.136H397.354V296.738ZM411.431 299.69C411.431 300.002 411.413 300.332 411.377 300.68H403.493C403.553 301.652 403.883 302.414 404.483 302.966C405.095 303.506 405.833 303.776 406.697 303.776C407.405 303.776 407.993 303.614 408.461 303.29C408.941 302.954 409.277 302.51 409.469 301.958H411.233C410.969 302.906 410.441 303.68 409.649 304.28C408.857 304.868 407.873 305.162 406.697 305.162C405.761 305.162 404.921 304.952 404.177 304.532C403.445 304.112 402.869 303.518 402.449 302.75C402.029 301.97 401.819 301.07 401.819 300.05C401.819 299.03 402.023 298.136 402.431 297.368C402.839 296.6 403.409 296.012 404.141 295.604C404.885 295.184 405.737 294.974 406.697 294.974C407.633 294.974 408.461 295.178 409.181 295.586C409.901 295.994 410.453 296.558 410.837 297.278C411.233 297.986 411.431 298.79 411.431 299.69ZM409.739 299.348C409.739 298.724 409.601 298.19 409.325 297.746C409.049 297.29 408.671 296.948 408.191 296.72C407.723 296.48 407.201 296.36 406.625 296.36C405.797 296.36 405.089 296.624 404.501 297.152C403.925 297.68 403.595 298.412 403.511 299.348H409.739ZM418.399 294.956C419.599 294.956 420.571 295.322 421.315 296.054C422.059 296.774 422.431 297.818 422.431 299.186V305H420.811V299.42C420.811 298.436 420.565 297.686 420.073 297.17C419.581 296.642 418.909 296.378 418.057 296.378C417.193 296.378 416.503 296.648 415.987 297.188C415.483 297.728 415.231 298.514 415.231 299.546V305H413.593V295.136H415.231V296.54C415.555 296.036 415.993 295.646 416.545 295.37C417.109 295.094 417.727 294.956 418.399 294.956ZM424.495 300.032C424.495 299.024 424.699 298.142 425.107 297.386C425.515 296.618 426.073 296.024 426.781 295.604C427.501 295.184 428.305 294.974 429.193 294.974C429.961 294.974 430.675 295.154 431.335 295.514C431.995 295.862 432.499 296.324 432.847 296.9V291.68H434.503V305H432.847V303.146C432.523 303.734 432.043 304.22 431.407 304.604C430.771 304.976 430.027 305.162 429.175 305.162C428.299 305.162 427.501 304.946 426.781 304.514C426.073 304.082 425.515 303.476 425.107 302.696C424.699 301.916 424.495 301.028 424.495 300.032ZM432.847 300.05C432.847 299.306 432.697 298.658 432.397 298.106C432.097 297.554 431.689 297.134 431.173 296.846C430.669 296.546 430.111 296.396 429.499 296.396C428.887 296.396 428.329 296.54 427.825 296.828C427.321 297.116 426.919 297.536 426.619 298.088C426.319 298.64 426.169 299.288 426.169 300.032C426.169 300.788 426.319 301.448 426.619 302.012C426.919 302.564 427.321 302.99 427.825 303.29C428.329 303.578 428.887 303.722 429.499 303.722C430.111 303.722 430.669 303.578 431.173 303.29C431.689 302.99 432.097 302.564 432.397 302.012C432.697 301.448 432.847 300.794 432.847 300.05ZM445.767 295.136L439.827 309.644H438.135L440.079 304.892L436.101 295.136H437.919L441.015 303.128L444.075 295.136H445.767ZM456.226 296.486H454.156V305H452.518V296.486H451.24V295.136H452.518V294.434C452.518 293.33 452.8 292.526 453.364 292.022C453.94 291.506 454.858 291.248 456.118 291.248V292.616C455.398 292.616 454.888 292.76 454.588 293.048C454.3 293.324 454.156 293.786 454.156 294.434V295.136H456.226V296.486ZM462.438 305.162C461.514 305.162 460.674 304.952 459.918 304.532C459.174 304.112 458.586 303.518 458.154 302.75C457.734 301.97 457.524 301.07 457.524 300.05C457.524 299.042 457.74 298.154 458.172 297.386C458.616 296.606 459.216 296.012 459.972 295.604C460.728 295.184 461.574 294.974 462.51 294.974C463.446 294.974 464.292 295.184 465.048 295.604C465.804 296.012 466.398 296.6 466.83 297.368C467.274 298.136 467.496 299.03 467.496 300.05C467.496 301.07 467.268 301.97 466.812 302.75C466.368 303.518 465.762 304.112 464.994 304.532C464.226 304.952 463.374 305.162 462.438 305.162ZM462.438 303.722C463.026 303.722 463.578 303.584 464.094 303.308C464.61 303.032 465.024 302.618 465.336 302.066C465.66 301.514 465.822 300.842 465.822 300.05C465.822 299.258 465.666 298.586 465.354 298.034C465.042 297.482 464.634 297.074 464.13 296.81C463.626 296.534 463.08 296.396 462.492 296.396C461.892 296.396 461.34 296.534 460.836 296.81C460.344 297.074 459.948 297.482 459.648 298.034C459.348 298.586 459.198 299.258 459.198 300.05C459.198 300.854 459.342 301.532 459.63 302.084C459.93 302.636 460.326 303.05 460.818 303.326C461.31 303.59 461.85 303.722 462.438 303.722ZM473.952 305.162C473.028 305.162 472.188 304.952 471.432 304.532C470.688 304.112 470.1 303.518 469.668 302.75C469.248 301.97 469.038 301.07 469.038 300.05C469.038 299.042 469.254 298.154 469.686 297.386C470.13 296.606 470.73 296.012 471.486 295.604C472.242 295.184 473.088 294.974 474.024 294.974C474.96 294.974 475.806 295.184 476.562 295.604C477.318 296.012 477.912 296.6 478.344 297.368C478.788 298.136 479.01 299.03 479.01 300.05C479.01 301.07 478.782 301.97 478.326 302.75C477.882 303.518 477.276 304.112 476.508 304.532C475.74 304.952 474.888 305.162 473.952 305.162ZM473.952 303.722C474.54 303.722 475.092 303.584 475.608 303.308C476.124 303.032 476.538 302.618 476.85 302.066C477.174 301.514 477.336 300.842 477.336 300.05C477.336 299.258 477.18 298.586 476.868 298.034C476.556 297.482 476.148 297.074 475.644 296.81C475.14 296.534 474.594 296.396 474.006 296.396C473.406 296.396 472.854 296.534 472.35 296.81C471.858 297.074 471.462 297.482 471.162 298.034C470.862 298.586 470.712 299.258 470.712 300.05C470.712 300.854 470.856 301.532 471.144 302.084C471.444 302.636 471.84 303.05 472.332 303.326C472.824 303.59 473.364 303.722 473.952 303.722ZM480.551 300.032C480.551 299.024 480.755 298.142 481.163 297.386C481.571 296.618 482.129 296.024 482.837 295.604C483.557 295.184 484.361 294.974 485.249 294.974C486.017 294.974 486.731 295.154 487.391 295.514C488.051 295.862 488.555 296.324 488.903 296.9V291.68H490.559V305H488.903V303.146C488.579 303.734 488.099 304.22 487.463 304.604C486.827 304.976 486.083 305.162 485.231 305.162C484.355 305.162 483.557 304.946 482.837 304.514C482.129 304.082 481.571 303.476 481.163 302.696C480.755 301.916 480.551 301.028 480.551 300.032ZM488.903 300.05C488.903 299.306 488.753 298.658 488.453 298.106C488.153 297.554 487.745 297.134 487.229 296.846C486.725 296.546 486.167 296.396 485.555 296.396C484.943 296.396 484.385 296.54 483.881 296.828C483.377 297.116 482.975 297.536 482.675 298.088C482.375 298.64 482.225 299.288 482.225 300.032C482.225 300.788 482.375 301.448 482.675 302.012C482.975 302.564 483.377 302.99 483.881 303.29C484.385 303.578 484.943 303.722 485.555 303.722C486.167 303.722 486.725 303.578 487.229 303.29C487.745 302.99 488.153 302.564 488.453 302.012C488.753 301.448 488.903 300.794 488.903 300.05ZM0.774 332.032C0.774 331.024 0.978 330.142 1.386 329.386C1.794 328.618 2.352 328.024 3.06 327.604C3.78 327.184 4.584 326.974 5.472 326.974C6.24 326.974 6.954 327.154 7.614 327.514C8.274 327.862 8.778 328.324 9.126 328.9V323.68H10.782V337H9.126V335.146C8.802 335.734 8.322 336.22 7.686 336.604C7.05 336.976 6.306 337.162 5.454 337.162C4.578 337.162 3.78 336.946 3.06 336.514C2.352 336.082 1.794 335.476 1.386 334.696C0.978 333.916 0.774 333.028 0.774 332.032ZM9.126 332.05C9.126 331.306 8.976 330.658 8.676 330.106C8.376 329.554 7.968 329.134 7.452 328.846C6.948 328.546 6.39 328.396 5.778 328.396C5.166 328.396 4.608 328.54 4.104 328.828C3.6 329.116 3.198 329.536 2.898 330.088C2.598 330.64 2.448 331.288 2.448 332.032C2.448 332.788 2.598 333.448 2.898 334.012C3.198 334.564 3.6 334.99 4.104 335.29C4.608 335.578 5.166 335.722 5.778 335.722C6.39 335.722 6.948 335.578 7.452 335.29C7.968 334.99 8.376 334.564 8.676 334.012C8.976 333.448 9.126 332.794 9.126 332.05ZM22.5501 331.69C22.5501 332.002 22.5321 332.332 22.4961 332.68H14.6121C14.6721 333.652 15.0021 334.414 15.6021 334.966C16.2141 335.506 16.9521 335.776 17.8161 335.776C18.5241 335.776 19.1121 335.614 19.5801 335.29C20.0601 334.954 20.3961 334.51 20.5881 333.958H22.3521C22.0881 334.906 21.5601 335.68 20.7681 336.28C19.9761 336.868 18.9921 337.162 17.8161 337.162C16.8801 337.162 16.0401 336.952 15.2961 336.532C14.5641 336.112 13.9881 335.518 13.5681 334.75C13.1481 333.97 12.9381 333.07 12.9381 332.05C12.9381 331.03 13.1421 330.136 13.5501 329.368C13.9581 328.6 14.5281 328.012 15.2601 327.604C16.0041 327.184 16.8561 326.974 17.8161 326.974C18.7521 326.974 19.5801 327.178 20.3001 327.586C21.0201 327.994 21.5721 328.558 21.9561 329.278C22.3521 329.986 22.5501 330.79 22.5501 331.69ZM20.8581 331.348C20.8581 330.724 20.7201 330.19 20.4441 329.746C20.1681 329.29 19.7901 328.948 19.3101 328.72C18.8421 328.48 18.3201 328.36 17.7441 328.36C16.9161 328.36 16.2081 328.624 15.6201 329.152C15.0441 329.68 14.7141 330.412 14.6301 331.348H20.8581ZM26.3502 323.68V337H24.7122V323.68H26.3502ZM29.9879 325.534C29.6759 325.534 29.4119 325.426 29.1959 325.21C28.9799 324.994 28.8719 324.73 28.8719 324.418C28.8719 324.106 28.9799 323.842 29.1959 323.626C29.4119 323.41 29.6759 323.302 29.9879 323.302C30.2879 323.302 30.5399 323.41 30.7439 323.626C30.9599 323.842 31.0679 324.106 31.0679 324.418C31.0679 324.73 30.9599 324.994 30.7439 325.21C30.5399 325.426 30.2879 325.534 29.9879 325.534ZM30.7799 327.136V337H29.1419V327.136H30.7799ZM37.2435 335.488L40.3035 327.136H42.0495L38.1795 337H36.2715L32.4015 327.136H34.1655L37.2435 335.488ZM52.6614 331.69C52.6614 332.002 52.6434 332.332 52.6074 332.68H44.7234C44.7834 333.652 45.1134 334.414 45.7134 334.966C46.3254 335.506 47.0634 335.776 47.9274 335.776C48.6354 335.776 49.2234 335.614 49.6914 335.29C50.1714 334.954 50.5074 334.51 50.6994 333.958H52.4634C52.1994 334.906 51.6714 335.68 50.8794 336.28C50.0874 336.868 49.1034 337.162 47.9274 337.162C46.9914 337.162 46.1514 336.952 45.4074 336.532C44.6754 336.112 44.0994 335.518 43.6794 334.75C43.2594 333.97 43.0494 333.07 43.0494 332.05C43.0494 331.03 43.2534 330.136 43.6614 329.368C44.0694 328.6 44.6394 328.012 45.3714 327.604C46.1154 327.184 46.9674 326.974 47.9274 326.974C48.8634 326.974 49.6914 327.178 50.4114 327.586C51.1314 327.994 51.6834 328.558 52.0674 329.278C52.4634 329.986 52.6614 330.79 52.6614 331.69ZM50.9694 331.348C50.9694 330.724 50.8314 330.19 50.5554 329.746C50.2794 329.29 49.9014 328.948 49.4214 328.72C48.9534 328.48 48.4314 328.36 47.8554 328.36C47.0274 328.36 46.3194 328.624 45.7314 329.152C45.1554 329.68 44.8254 330.412 44.7414 331.348H50.9694ZM56.4615 328.738C56.7495 328.174 57.1575 327.736 57.6855 327.424C58.2255 327.112 58.8795 326.956 59.6475 326.956V328.648H59.2155C57.3795 328.648 56.4615 329.644 56.4615 331.636V337H54.8235V327.136H56.4615V328.738ZM70.0343 327.136L64.0943 341.644H62.4023L64.3463 336.892L60.3683 327.136H62.1863L65.2823 335.128L68.3423 327.136H70.0343ZM78.1178 328.954C78.4418 328.39 78.9218 327.922 79.5578 327.55C80.2058 327.166 80.9558 326.974 81.8078 326.974C82.6838 326.974 83.4758 327.184 84.1837 327.604C84.9037 328.024 85.4678 328.618 85.8758 329.386C86.2838 330.142 86.4878 331.024 86.4878 332.032C86.4878 333.028 86.2838 333.916 85.8758 334.696C85.4678 335.476 84.9037 336.082 84.1837 336.514C83.4758 336.946 82.6838 337.162 81.8078 337.162C80.9678 337.162 80.2238 336.976 79.5758 336.604C78.9398 336.22 78.4538 335.746 78.1178 335.182V341.68H76.4798V327.136H78.1178V328.954ZM84.8138 332.032C84.8138 331.288 84.6638 330.64 84.3638 330.088C84.0638 329.536 83.6558 329.116 83.1398 328.828C82.6358 328.54 82.0778 328.396 81.4658 328.396C80.8658 328.396 80.3078 328.546 79.7918 328.846C79.2878 329.134 78.8798 329.56 78.5678 330.124C78.2678 330.676 78.1178 331.318 78.1178 332.05C78.1178 332.794 78.2678 333.448 78.5678 334.012C78.8798 334.564 79.2878 334.99 79.7918 335.29C80.3078 335.578 80.8658 335.722 81.4658 335.722C82.0778 335.722 82.6358 335.578 83.1398 335.29C83.6558 334.99 84.0638 334.564 84.3638 334.012C84.6638 333.448 84.8138 332.788 84.8138 332.032ZM88.0318 332.032C88.0318 331.024 88.2358 330.142 88.6438 329.386C89.0518 328.618 89.6098 328.024 90.3178 327.604C91.0378 327.184 91.8358 326.974 92.7118 326.974C93.5758 326.974 94.3258 327.16 94.9618 327.532C95.5978 327.904 96.0718 328.372 96.3838 328.936V327.136H98.0398V337H96.3838V335.164C96.0598 335.74 95.5738 336.22 94.9258 336.604C94.2898 336.976 93.5458 337.162 92.6938 337.162C91.8178 337.162 91.0258 336.946 90.3178 336.514C89.6098 336.082 89.0518 335.476 88.6438 334.696C88.2358 333.916 88.0318 333.028 88.0318 332.032ZM96.3838 332.05C96.3838 331.306 96.2338 330.658 95.9338 330.106C95.6338 329.554 95.2258 329.134 94.7098 328.846C94.2058 328.546 93.6478 328.396 93.0358 328.396C92.4238 328.396 91.8658 328.54 91.3618 328.828C90.8578 329.116 90.4558 329.536 90.1558 330.088C89.8558 330.64 89.7058 331.288 89.7058 332.032C89.7058 332.788 89.8558 333.448 90.1558 334.012C90.4558 334.564 90.8578 334.99 91.3618 335.29C91.8658 335.578 92.4238 335.722 93.0358 335.722C93.6478 335.722 94.2058 335.578 94.7098 335.29C95.2258 334.99 95.6338 334.564 95.9338 334.012C96.2338 333.448 96.3838 332.794 96.3838 332.05ZM102.446 328.738C102.734 328.174 103.142 327.736 103.67 327.424C104.21 327.112 104.864 326.956 105.632 326.956V328.648H105.2C103.364 328.648 102.446 329.644 102.446 331.636V337H100.808V327.136H102.446V328.738ZM109.521 328.486V334.3C109.521 334.78 109.623 335.122 109.827 335.326C110.031 335.518 110.385 335.614 110.889 335.614H112.095V337H110.619C109.707 337 109.023 336.79 108.567 336.37C108.111 335.95 107.883 335.26 107.883 334.3V328.486H106.605V327.136H107.883V324.652H109.521V327.136H112.095V328.486H109.521ZM118.885 326.956C120.085 326.956 121.057 327.322 121.801 328.054C122.545 328.774 122.917 329.818 122.917 331.186V337H121.297V331.42C121.297 330.436 121.051 329.686 120.559 329.17C120.067 328.642 119.395 328.378 118.543 328.378C117.679 328.378 116.989 328.648 116.473 329.188C115.969 329.728 115.717 330.514 115.717 331.546V337H114.079V327.136H115.717V328.54C116.041 328.036 116.479 327.646 117.031 327.37C117.595 327.094 118.213 326.956 118.885 326.956ZM134.593 331.69C134.593 332.002 134.575 332.332 134.539 332.68H126.655C126.715 333.652 127.045 334.414 127.645 334.966C128.257 335.506 128.995 335.776 129.859 335.776C130.567 335.776 131.155 335.614 131.623 335.29C132.103 334.954 132.439 334.51 132.631 333.958H134.395C134.131 334.906 133.603 335.68 132.811 336.28C132.019 336.868 131.035 337.162 129.859 337.162C128.923 337.162 128.083 336.952 127.339 336.532C126.607 336.112 126.031 335.518 125.611 334.75C125.191 333.97 124.981 333.07 124.981 332.05C124.981 331.03 125.185 330.136 125.593 329.368C126.001 328.6 126.571 328.012 127.303 327.604C128.047 327.184 128.899 326.974 129.859 326.974C130.795 326.974 131.623 327.178 132.343 327.586C133.063 327.994 133.615 328.558 133.999 329.278C134.395 329.986 134.593 330.79 134.593 331.69ZM132.901 331.348C132.901 330.724 132.763 330.19 132.487 329.746C132.211 329.29 131.833 328.948 131.353 328.72C130.885 328.48 130.363 328.36 129.787 328.36C128.959 328.36 128.251 328.624 127.663 329.152C127.087 329.68 126.757 330.412 126.673 331.348H132.901ZM138.393 328.738C138.681 328.174 139.089 327.736 139.617 327.424C140.157 327.112 140.811 326.956 141.579 326.956V328.648H141.147C139.311 328.648 138.393 329.644 138.393 331.636V337H136.755V327.136H138.393V328.738ZM143.992 337.108C143.68 337.108 143.416 337 143.2 336.784C142.984 336.568 142.876 336.304 142.876 335.992C142.876 335.68 142.984 335.416 143.2 335.2C143.416 334.984 143.68 334.876 143.992 334.876C144.292 334.876 144.544 334.984 144.748 335.2C144.964 335.416 145.072 335.68 145.072 335.992C145.072 336.304 144.964 336.568 144.748 336.784C144.544 337 144.292 337.108 143.992 337.108ZM161.552 328.09C161.204 327.358 160.7 326.794 160.04 326.398C159.38 325.99 158.612 325.786 157.736 325.786C156.86 325.786 156.068 325.99 155.36 326.398C154.664 326.794 154.112 327.37 153.704 328.126C153.308 328.87 153.11 329.734 153.11 330.718C153.11 331.702 153.308 332.566 153.704 333.31C154.112 334.054 154.664 334.63 155.36 335.038C156.068 335.434 156.86 335.632 157.736 335.632C158.96 335.632 159.968 335.266 160.76 334.534C161.552 333.802 162.014 332.812 162.146 331.564H157.142V330.232H163.892V331.492C163.796 332.524 163.472 333.472 162.92 334.336C162.368 335.188 161.642 335.866 160.742 336.37C159.842 336.862 158.84 337.108 157.736 337.108C156.572 337.108 155.51 336.838 154.55 336.298C153.59 335.746 152.828 334.984 152.264 334.012C151.712 333.04 151.436 331.942 151.436 330.718C151.436 329.494 151.712 328.396 152.264 327.424C152.828 326.44 153.59 325.678 154.55 325.138C155.51 324.586 156.572 324.31 157.736 324.31C159.068 324.31 160.244 324.64 161.264 325.3C162.296 325.96 163.046 326.89 163.514 328.09H161.552ZM170.36 337.162C169.436 337.162 168.596 336.952 167.84 336.532C167.096 336.112 166.508 335.518 166.076 334.75C165.656 333.97 165.446 333.07 165.446 332.05C165.446 331.042 165.662 330.154 166.094 329.386C166.538 328.606 167.138 328.012 167.894 327.604C168.65 327.184 169.496 326.974 170.432 326.974C171.368 326.974 172.214 327.184 172.97 327.604C173.726 328.012 174.32 328.6 174.752 329.368C175.196 330.136 175.418 331.03 175.418 332.05C175.418 333.07 175.19 333.97 174.734 334.75C174.29 335.518 173.684 336.112 172.916 336.532C172.148 336.952 171.296 337.162 170.36 337.162ZM170.36 335.722C170.948 335.722 171.5 335.584 172.016 335.308C172.532 335.032 172.946 334.618 173.258 334.066C173.582 333.514 173.744 332.842 173.744 332.05C173.744 331.258 173.588 330.586 173.276 330.034C172.964 329.482 172.556 329.074 172.052 328.81C171.548 328.534 171.002 328.396 170.414 328.396C169.814 328.396 169.262 328.534 168.758 328.81C168.266 329.074 167.87 329.482 167.57 330.034C167.27 330.586 167.12 331.258 167.12 332.05C167.12 332.854 167.264 333.532 167.552 334.084C167.852 334.636 168.248 335.05 168.74 335.326C169.232 335.59 169.772 335.722 170.36 335.722ZM181.874 337.162C180.95 337.162 180.11 336.952 179.354 336.532C178.61 336.112 178.022 335.518 177.59 334.75C177.17 333.97 176.96 333.07 176.96 332.05C176.96 331.042 177.176 330.154 177.608 329.386C178.052 328.606 178.652 328.012 179.408 327.604C180.164 327.184 181.01 326.974 181.946 326.974C182.882 326.974 183.728 327.184 184.484 327.604C185.24 328.012 185.834 328.6 186.266 329.368C186.71 330.136 186.932 331.03 186.932 332.05C186.932 333.07 186.704 333.97 186.248 334.75C185.804 335.518 185.198 336.112 184.43 336.532C183.662 336.952 182.81 337.162 181.874 337.162ZM181.874 335.722C182.462 335.722 183.014 335.584 183.53 335.308C184.046 335.032 184.46 334.618 184.772 334.066C185.096 333.514 185.258 332.842 185.258 332.05C185.258 331.258 185.102 330.586 184.79 330.034C184.478 329.482 184.07 329.074 183.566 328.81C183.062 328.534 182.516 328.396 181.928 328.396C181.328 328.396 180.776 328.534 180.272 328.81C179.78 329.074 179.384 329.482 179.084 330.034C178.784 330.586 178.634 331.258 178.634 332.05C178.634 332.854 178.778 333.532 179.066 334.084C179.366 334.636 179.762 335.05 180.254 335.326C180.746 335.59 181.286 335.722 181.874 335.722ZM188.473 332.032C188.473 331.024 188.677 330.142 189.085 329.386C189.493 328.618 190.051 328.024 190.759 327.604C191.479 327.184 192.283 326.974 193.171 326.974C193.939 326.974 194.653 327.154 195.313 327.514C195.973 327.862 196.477 328.324 196.825 328.9V323.68H198.481V337H196.825V335.146C196.501 335.734 196.021 336.22 195.385 336.604C194.749 336.976 194.005 337.162 193.153 337.162C192.277 337.162 191.479 336.946 190.759 336.514C190.051 336.082 189.493 335.476 189.085 334.696C188.677 333.916 188.473 333.028 188.473 332.032ZM196.825 332.05C196.825 331.306 196.675 330.658 196.375 330.106C196.075 329.554 195.667 329.134 195.151 328.846C194.647 328.546 194.089 328.396 193.477 328.396C192.865 328.396 192.307 328.54 191.803 328.828C191.299 329.116 190.897 329.536 190.597 330.088C190.297 330.64 190.147 331.288 190.147 332.032C190.147 332.788 190.297 333.448 190.597 334.012C190.897 334.564 191.299 334.99 191.803 335.29C192.307 335.578 192.865 335.722 193.477 335.722C194.089 335.722 194.647 335.578 195.151 335.29C195.667 334.99 196.075 334.564 196.375 334.012C196.675 333.448 196.825 332.794 196.825 332.05ZM210.062 328.486H207.992V337H206.354V328.486H205.076V327.136H206.354V326.434C206.354 325.33 206.636 324.526 207.2 324.022C207.776 323.506 208.694 323.248 209.954 323.248V324.616C209.234 324.616 208.724 324.76 208.424 325.048C208.136 325.324 207.992 325.786 207.992 326.434V327.136H210.062V328.486ZM216.274 337.162C215.35 337.162 214.51 336.952 213.754 336.532C213.01 336.112 212.422 335.518 211.99 334.75C211.57 333.97 211.36 333.07 211.36 332.05C211.36 331.042 211.576 330.154 212.008 329.386C212.452 328.606 213.052 328.012 213.808 327.604C214.564 327.184 215.41 326.974 216.346 326.974C217.282 326.974 218.128 327.184 218.884 327.604C219.64 328.012 220.234 328.6 220.666 329.368C221.11 330.136 221.332 331.03 221.332 332.05C221.332 333.07 221.104 333.97 220.648 334.75C220.204 335.518 219.598 336.112 218.83 336.532C218.062 336.952 217.21 337.162 216.274 337.162ZM216.274 335.722C216.862 335.722 217.414 335.584 217.93 335.308C218.446 335.032 218.86 334.618 219.172 334.066C219.496 333.514 219.658 332.842 219.658 332.05C219.658 331.258 219.502 330.586 219.19 330.034C218.878 329.482 218.47 329.074 217.966 328.81C217.462 328.534 216.916 328.396 216.328 328.396C215.728 328.396 215.176 328.534 214.672 328.81C214.18 329.074 213.784 329.482 213.484 330.034C213.184 330.586 213.034 331.258 213.034 332.05C213.034 332.854 213.178 333.532 213.466 334.084C213.766 334.636 214.162 335.05 214.654 335.326C215.146 335.59 215.686 335.722 216.274 335.722ZM227.788 337.162C226.864 337.162 226.024 336.952 225.268 336.532C224.524 336.112 223.936 335.518 223.504 334.75C223.084 333.97 222.874 333.07 222.874 332.05C222.874 331.042 223.09 330.154 223.522 329.386C223.966 328.606 224.566 328.012 225.322 327.604C226.078 327.184 226.924 326.974 227.86 326.974C228.796 326.974 229.642 327.184 230.398 327.604C231.154 328.012 231.748 328.6 232.18 329.368C232.624 330.136 232.846 331.03 232.846 332.05C232.846 333.07 232.618 333.97 232.162 334.75C231.718 335.518 231.112 336.112 230.344 336.532C229.576 336.952 228.724 337.162 227.788 337.162ZM227.788 335.722C228.376 335.722 228.928 335.584 229.444 335.308C229.96 335.032 230.374 334.618 230.686 334.066C231.01 333.514 231.172 332.842 231.172 332.05C231.172 331.258 231.016 330.586 230.704 330.034C230.392 329.482 229.984 329.074 229.48 328.81C228.976 328.534 228.43 328.396 227.842 328.396C227.242 328.396 226.69 328.534 226.186 328.81C225.694 329.074 225.298 329.482 224.998 330.034C224.698 330.586 224.548 331.258 224.548 332.05C224.548 332.854 224.692 333.532 224.98 334.084C225.28 334.636 225.676 335.05 226.168 335.326C226.66 335.59 227.2 335.722 227.788 335.722ZM234.387 332.032C234.387 331.024 234.591 330.142 234.999 329.386C235.407 328.618 235.965 328.024 236.673 327.604C237.393 327.184 238.197 326.974 239.085 326.974C239.853 326.974 240.567 327.154 241.227 327.514C241.887 327.862 242.391 328.324 242.739 328.9V323.68H244.395V337H242.739V335.146C242.415 335.734 241.935 336.22 241.299 336.604C240.663 336.976 239.919 337.162 239.067 337.162C238.191 337.162 237.393 336.946 236.673 336.514C235.965 336.082 235.407 335.476 234.999 334.696C234.591 333.916 234.387 333.028 234.387 332.032ZM242.739 332.05C242.739 331.306 242.589 330.658 242.289 330.106C241.989 329.554 241.581 329.134 241.065 328.846C240.561 328.546 240.003 328.396 239.391 328.396C238.779 328.396 238.221 328.54 237.717 328.828C237.213 329.116 236.811 329.536 236.511 330.088C236.211 330.64 236.061 331.288 236.061 332.032C236.061 332.788 236.211 333.448 236.511 334.012C236.811 334.564 237.213 334.99 237.717 335.29C238.221 335.578 238.779 335.722 239.391 335.722C240.003 335.722 240.561 335.578 241.065 335.29C241.581 334.99 241.989 334.564 242.289 334.012C242.589 333.448 242.739 332.794 242.739 332.05ZM252.808 325.534C252.496 325.534 252.232 325.426 252.016 325.21C251.8 324.994 251.692 324.73 251.692 324.418C251.692 324.106 251.8 323.842 252.016 323.626C252.232 323.41 252.496 323.302 252.808 323.302C253.108 323.302 253.36 323.41 253.564 323.626C253.78 323.842 253.888 324.106 253.888 324.418C253.888 324.73 253.78 324.994 253.564 325.21C253.36 325.426 253.108 325.534 252.808 325.534ZM253.6 327.136V337H251.962V327.136H253.6ZM259.884 337.162C259.128 337.162 258.45 337.036 257.85 336.784C257.25 336.52 256.776 336.16 256.428 335.704C256.08 335.236 255.888 334.702 255.852 334.102H257.544C257.592 334.594 257.82 334.996 258.228 335.308C258.648 335.62 259.194 335.776 259.866 335.776C260.49 335.776 260.982 335.638 261.342 335.362C261.702 335.086 261.882 334.738 261.882 334.318C261.882 333.886 261.69 333.568 261.306 333.364C260.922 333.148 260.328 332.938 259.524 332.734C258.792 332.542 258.192 332.35 257.724 332.158C257.268 331.954 256.872 331.66 256.536 331.276C256.212 330.88 256.05 330.364 256.05 329.728C256.05 329.224 256.2 328.762 256.5 328.342C256.8 327.922 257.226 327.592 257.778 327.352C258.33 327.1 258.96 326.974 259.668 326.974C260.76 326.974 261.642 327.25 262.314 327.802C262.986 328.354 263.346 329.11 263.394 330.07H261.756C261.72 329.554 261.51 329.14 261.126 328.828C260.754 328.516 260.25 328.36 259.614 328.36C259.026 328.36 258.558 328.486 258.21 328.738C257.862 328.99 257.688 329.32 257.688 329.728C257.688 330.052 257.79 330.322 257.994 330.538C258.21 330.742 258.474 330.91 258.786 331.042C259.11 331.162 259.554 331.3 260.118 331.456C260.826 331.648 261.402 331.84 261.846 332.032C262.29 332.212 262.668 332.488 262.98 332.86C263.304 333.232 263.472 333.718 263.484 334.318C263.484 334.858 263.334 335.344 263.034 335.776C262.734 336.208 262.308 336.55 261.756 336.802C261.216 337.042 260.592 337.162 259.884 337.162ZM283.735 327.136L280.657 337H278.965L276.589 329.17L274.213 337H272.521L269.425 327.136H271.099L273.367 335.416L275.815 327.136H277.489L279.883 335.434L282.115 327.136H283.735ZM290.257 326.956C291.001 326.956 291.673 327.118 292.273 327.442C292.873 327.754 293.341 328.228 293.677 328.864C294.025 329.5 294.199 330.274 294.199 331.186V337H292.579V331.42C292.579 330.436 292.333 329.686 291.841 329.17C291.349 328.642 290.677 328.378 289.825 328.378C288.961 328.378 288.271 328.648 287.755 329.188C287.251 329.728 286.999 330.514 286.999 331.546V337H285.361V323.68H286.999V328.54C287.323 328.036 287.767 327.646 288.331 327.37C288.907 327.094 289.549 326.956 290.257 326.956ZM296.262 332.032C296.262 331.024 296.466 330.142 296.874 329.386C297.282 328.618 297.84 328.024 298.548 327.604C299.268 327.184 300.066 326.974 300.942 326.974C301.806 326.974 302.556 327.16 303.192 327.532C303.828 327.904 304.302 328.372 304.614 328.936V327.136H306.27V337H304.614V335.164C304.29 335.74 303.804 336.22 303.156 336.604C302.52 336.976 301.776 337.162 300.924 337.162C300.048 337.162 299.256 336.946 298.548 336.514C297.84 336.082 297.282 335.476 296.874 334.696C296.466 333.916 296.262 333.028 296.262 332.032ZM304.614 332.05C304.614 331.306 304.464 330.658 304.164 330.106C303.864 329.554 303.456 329.134 302.94 328.846C302.436 328.546 301.878 328.396 301.266 328.396C300.654 328.396 300.096 328.54 299.592 328.828C299.088 329.116 298.686 329.536 298.386 330.088C298.086 330.64 297.936 331.288 297.936 332.032C297.936 332.788 298.086 333.448 298.386 334.012C298.686 334.564 299.088 334.99 299.592 335.29C300.096 335.578 300.654 335.722 301.266 335.722C301.878 335.722 302.436 335.578 302.94 335.29C303.456 334.99 303.864 334.564 304.164 334.012C304.464 333.448 304.614 332.794 304.614 332.05ZM311.036 328.486V334.3C311.036 334.78 311.138 335.122 311.342 335.326C311.546 335.518 311.9 335.614 312.404 335.614H313.61V337H312.134C311.222 337 310.538 336.79 310.082 336.37C309.626 335.95 309.398 335.26 309.398 334.3V328.486H308.12V327.136H309.398V324.652H311.036V327.136H313.61V328.486H311.036ZM333.534 327.136L330.456 337H328.764L326.388 329.17L324.012 337H322.32L319.224 327.136H320.898L323.166 335.416L325.614 327.136H327.288L329.682 335.434L331.914 327.136H333.534ZM344.159 331.69C344.159 332.002 344.141 332.332 344.105 332.68H336.221C336.281 333.652 336.611 334.414 337.211 334.966C337.823 335.506 338.561 335.776 339.425 335.776C340.133 335.776 340.721 335.614 341.189 335.29C341.669 334.954 342.005 334.51 342.197 333.958H343.961C343.697 334.906 343.169 335.68 342.377 336.28C341.585 336.868 340.601 337.162 339.425 337.162C338.489 337.162 337.649 336.952 336.905 336.532C336.173 336.112 335.597 335.518 335.177 334.75C334.757 333.97 334.547 333.07 334.547 332.05C334.547 331.03 334.751 330.136 335.159 329.368C335.567 328.6 336.137 328.012 336.869 327.604C337.613 327.184 338.465 326.974 339.425 326.974C340.361 326.974 341.189 327.178 341.909 327.586C342.629 327.994 343.181 328.558 343.565 329.278C343.961 329.986 344.159 330.79 344.159 331.69ZM342.467 331.348C342.467 330.724 342.329 330.19 342.053 329.746C341.777 329.29 341.399 328.948 340.919 328.72C340.451 328.48 339.929 328.36 339.353 328.36C338.525 328.36 337.817 328.624 337.229 329.152C336.653 329.68 336.323 330.412 336.239 331.348H342.467ZM350.508 332.032C350.508 331.024 350.712 330.142 351.12 329.386C351.528 328.618 352.086 328.024 352.794 327.604C353.514 327.184 354.318 326.974 355.206 326.974C355.974 326.974 356.688 327.154 357.348 327.514C358.008 327.862 358.512 328.324 358.86 328.9V323.68H360.516V337H358.86V335.146C358.536 335.734 358.056 336.22 357.42 336.604C356.784 336.976 356.04 337.162 355.188 337.162C354.312 337.162 353.514 336.946 352.794 336.514C352.086 336.082 351.528 335.476 351.12 334.696C350.712 333.916 350.508 333.028 350.508 332.032ZM358.86 332.05C358.86 331.306 358.71 330.658 358.41 330.106C358.11 329.554 357.702 329.134 357.186 328.846C356.682 328.546 356.124 328.396 355.512 328.396C354.9 328.396 354.342 328.54 353.838 328.828C353.334 329.116 352.932 329.536 352.632 330.088C352.332 330.64 352.182 331.288 352.182 332.032C352.182 332.788 352.332 333.448 352.632 334.012C352.932 334.564 353.334 334.99 353.838 335.29C354.342 335.578 354.9 335.722 355.512 335.722C356.124 335.722 356.682 335.578 357.186 335.29C357.702 334.99 358.11 334.564 358.41 334.012C358.71 333.448 358.86 332.794 358.86 332.05ZM372.284 331.69C372.284 332.002 372.266 332.332 372.23 332.68H364.346C364.406 333.652 364.736 334.414 365.336 334.966C365.948 335.506 366.686 335.776 367.55 335.776C368.258 335.776 368.846 335.614 369.314 335.29C369.794 334.954 370.13 334.51 370.322 333.958H372.086C371.822 334.906 371.294 335.68 370.502 336.28C369.71 336.868 368.726 337.162 367.55 337.162C366.614 337.162 365.774 336.952 365.03 336.532C364.298 336.112 363.722 335.518 363.302 334.75C362.882 333.97 362.672 333.07 362.672 332.05C362.672 331.03 362.876 330.136 363.284 329.368C363.692 328.6 364.262 328.012 364.994 327.604C365.738 327.184 366.59 326.974 367.55 326.974C368.486 326.974 369.314 327.178 370.034 327.586C370.754 327.994 371.306 328.558 371.69 329.278C372.086 329.986 372.284 330.79 372.284 331.69ZM370.592 331.348C370.592 330.724 370.454 330.19 370.178 329.746C369.902 329.29 369.524 328.948 369.044 328.72C368.576 328.48 368.054 328.36 367.478 328.36C366.65 328.36 365.942 328.624 365.354 329.152C364.778 329.68 364.448 330.412 364.364 331.348H370.592ZM376.085 323.68V337H374.447V323.68H376.085ZM379.722 325.534C379.41 325.534 379.146 325.426 378.93 325.21C378.714 324.994 378.606 324.73 378.606 324.418C378.606 324.106 378.714 323.842 378.93 323.626C379.146 323.41 379.41 323.302 379.722 323.302C380.022 323.302 380.274 323.41 380.478 323.626C380.694 323.842 380.802 324.106 380.802 324.418C380.802 324.73 380.694 324.994 380.478 325.21C380.274 325.426 380.022 325.534 379.722 325.534ZM380.514 327.136V337H378.876V327.136H380.514ZM386.978 335.488L390.038 327.136H391.784L387.914 337H386.006L382.136 327.136H383.9L386.978 335.488ZM402.396 331.69C402.396 332.002 402.378 332.332 402.342 332.68H394.458C394.518 333.652 394.848 334.414 395.448 334.966C396.06 335.506 396.798 335.776 397.662 335.776C398.37 335.776 398.958 335.614 399.426 335.29C399.906 334.954 400.242 334.51 400.434 333.958H402.198C401.934 334.906 401.406 335.68 400.614 336.28C399.822 336.868 398.838 337.162 397.662 337.162C396.726 337.162 395.886 336.952 395.142 336.532C394.41 336.112 393.834 335.518 393.414 334.75C392.994 333.97 392.784 333.07 392.784 332.05C392.784 331.03 392.988 330.136 393.396 329.368C393.804 328.6 394.374 328.012 395.106 327.604C395.85 327.184 396.702 326.974 397.662 326.974C398.598 326.974 399.426 327.178 400.146 327.586C400.866 327.994 401.418 328.558 401.802 329.278C402.198 329.986 402.396 330.79 402.396 331.69ZM400.704 331.348C400.704 330.724 400.566 330.19 400.29 329.746C400.014 329.29 399.636 328.948 399.156 328.72C398.688 328.48 398.166 328.36 397.59 328.36C396.762 328.36 396.054 328.624 395.466 329.152C394.89 329.68 394.56 330.412 394.476 331.348H400.704ZM406.196 328.738C406.484 328.174 406.892 327.736 407.42 327.424C407.96 327.112 408.614 326.956 409.382 326.956V328.648H408.95C407.114 328.648 406.196 329.644 406.196 331.636V337H404.558V327.136H406.196V328.738ZM411.795 337.108C411.483 337.108 411.219 337 411.003 336.784C410.787 336.568 410.679 336.304 410.679 335.992C410.679 335.68 410.787 335.416 411.003 335.2C411.219 334.984 411.483 334.876 411.795 334.876C412.095 334.876 412.347 334.984 412.551 335.2C412.767 335.416 412.875 335.68 412.875 335.992C412.875 336.304 412.767 336.568 412.551 336.784C412.347 337 412.095 337.108 411.795 337.108ZM428.635 324.454L424.549 332.266V337H422.911V332.266L418.807 324.454H420.625L423.721 330.808L426.817 324.454H428.635ZM434.665 337.162C433.741 337.162 432.901 336.952 432.145 336.532C431.401 336.112 430.813 335.518 430.381 334.75C429.961 333.97 429.751 333.07 429.751 332.05C429.751 331.042 429.967 330.154 430.399 329.386C430.843 328.606 431.443 328.012 432.199 327.604C432.955 327.184 433.801 326.974 434.737 326.974C435.673 326.974 436.519 327.184 437.275 327.604C438.031 328.012 438.625 328.6 439.057 329.368C439.501 330.136 439.723 331.03 439.723 332.05C439.723 333.07 439.495 333.97 439.039 334.75C438.595 335.518 437.989 336.112 437.221 336.532C436.453 336.952 435.601 337.162 434.665 337.162ZM434.665 335.722C435.253 335.722 435.805 335.584 436.321 335.308C436.837 335.032 437.251 334.618 437.563 334.066C437.887 333.514 438.049 332.842 438.049 332.05C438.049 331.258 437.893 330.586 437.581 330.034C437.269 329.482 436.861 329.074 436.357 328.81C435.853 328.534 435.307 328.396 434.719 328.396C434.119 328.396 433.567 328.534 433.063 328.81C432.571 329.074 432.175 329.482 431.875 330.034C431.575 330.586 431.425 331.258 431.425 332.05C431.425 332.854 431.569 333.532 431.857 334.084C432.157 334.636 432.553 335.05 433.045 335.326C433.537 335.59 434.077 335.722 434.665 335.722ZM450.624 327.136V337H448.986V335.542C448.674 336.046 448.236 336.442 447.672 336.73C447.12 337.006 446.508 337.144 445.836 337.144C445.068 337.144 444.378 336.988 443.766 336.676C443.154 336.352 442.668 335.872 442.308 335.236C441.96 334.6 441.786 333.826 441.786 332.914V327.136H443.406V332.698C443.406 333.67 443.652 334.42 444.144 334.948C444.636 335.464 445.308 335.722 446.16 335.722C447.036 335.722 447.726 335.452 448.23 334.912C448.734 334.372 448.986 333.586 448.986 332.554V327.136H450.624ZM455.028 328.738C455.316 328.174 455.724 327.736 456.252 327.424C456.792 327.112 457.446 326.956 458.214 326.956V328.648H457.782C455.946 328.648 455.028 329.644 455.028 331.636V337H453.39V327.136H455.028V328.738ZM6.282 358.956C7.026 358.956 7.698 359.118 8.298 359.442C8.898 359.754 9.366 360.228 9.702 360.864C10.05 361.5 10.224 362.274 10.224 363.186V369H8.604V363.42C8.604 362.436 8.358 361.686 7.866 361.17C7.374 360.642 6.702 360.378 5.85 360.378C4.986 360.378 4.296 360.648 3.78 361.188C3.276 361.728 3.024 362.514 3.024 363.546V369H1.386V355.68H3.024V360.54C3.348 360.036 3.792 359.646 4.356 359.37C4.932 359.094 5.574 358.956 6.282 358.956ZM21.6477 359.136V369H20.0097V367.542C19.6977 368.046 19.2597 368.442 18.6957 368.73C18.1437 369.006 17.5317 369.144 16.8597 369.144C16.0917 369.144 15.4017 368.988 14.7897 368.676C14.1777 368.352 13.6917 367.872 13.3317 367.236C12.9837 366.6 12.8097 365.826 12.8097 364.914V359.136H14.4297V364.698C14.4297 365.67 14.6757 366.42 15.1677 366.948C15.6597 367.464 16.3317 367.722 17.1837 367.722C18.0597 367.722 18.7497 367.452 19.2537 366.912C19.7577 366.372 20.0097 365.586 20.0097 364.554V359.136H21.6477ZM29.2193 358.956C30.4193 358.956 31.3913 359.322 32.1353 360.054C32.8793 360.774 33.2513 361.818 33.2513 363.186V369H31.6313V363.42C31.6313 362.436 31.3853 361.686 30.8933 361.17C30.4013 360.642 29.7293 360.378 28.8773 360.378C28.0133 360.378 27.3233 360.648 26.8073 361.188C26.3033 361.728 26.0513 362.514 26.0513 363.546V369H24.4133V359.136H26.0513V360.54C26.3753 360.036 26.8133 359.646 27.3653 359.37C27.9293 359.094 28.5473 358.956 29.2193 358.956ZM39.995 358.974C40.847 358.974 41.591 359.16 42.227 359.532C42.875 359.904 43.355 360.372 43.667 360.936V359.136H45.323V369.216C45.323 370.116 45.131 370.914 44.747 371.61C44.363 372.318 43.811 372.87 43.091 373.266C42.383 373.662 41.555 373.86 40.607 373.86C39.311 373.86 38.231 373.554 37.367 372.942C36.503 372.33 35.993 371.496 35.837 370.44H37.457C37.637 371.04 38.009 371.52 38.573 371.88C39.137 372.252 39.815 372.438 40.607 372.438C41.507 372.438 42.239 372.156 42.803 371.592C43.379 371.028 43.667 370.236 43.667 369.216V367.146C43.343 367.722 42.863 368.202 42.227 368.586C41.591 368.97 40.847 369.162 39.995 369.162C39.119 369.162 38.321 368.946 37.601 368.514C36.893 368.082 36.335 367.476 35.927 366.696C35.519 365.916 35.315 365.028 35.315 364.032C35.315 363.024 35.519 362.142 35.927 361.386C36.335 360.618 36.893 360.024 37.601 359.604C38.321 359.184 39.119 358.974 39.995 358.974ZM43.667 364.05C43.667 363.306 43.517 362.658 43.217 362.106C42.917 361.554 42.509 361.134 41.993 360.846C41.489 360.546 40.931 360.396 40.319 360.396C39.707 360.396 39.149 360.54 38.645 360.828C38.141 361.116 37.739 361.536 37.439 362.088C37.139 362.64 36.989 363.288 36.989 364.032C36.989 364.788 37.139 365.448 37.439 366.012C37.739 366.564 38.141 366.99 38.645 367.29C39.149 367.578 39.707 367.722 40.319 367.722C40.931 367.722 41.489 367.578 41.993 367.29C42.509 366.99 42.917 366.564 43.217 366.012C43.517 365.448 43.667 364.794 43.667 364.05ZM57.0911 363.69C57.0911 364.002 57.0731 364.332 57.0371 364.68H49.1531C49.2131 365.652 49.5431 366.414 50.1431 366.966C50.7551 367.506 51.4931 367.776 52.3571 367.776C53.0651 367.776 53.6531 367.614 54.1211 367.29C54.6011 366.954 54.9371 366.51 55.1291 365.958H56.8931C56.6291 366.906 56.1011 367.68 55.3091 368.28C54.5171 368.868 53.5331 369.162 52.3571 369.162C51.4211 369.162 50.5811 368.952 49.8371 368.532C49.1051 368.112 48.5291 367.518 48.1091 366.75C47.6891 365.97 47.4791 365.07 47.4791 364.05C47.4791 363.03 47.6831 362.136 48.0911 361.368C48.4991 360.6 49.0691 360.012 49.8011 359.604C50.5451 359.184 51.3971 358.974 52.3571 358.974C53.2931 358.974 54.1211 359.178 54.8411 359.586C55.5611 359.994 56.1131 360.558 56.4971 361.278C56.8931 361.986 57.0911 362.79 57.0911 363.69ZM55.3991 363.348C55.3991 362.724 55.2611 362.19 54.9851 361.746C54.7091 361.29 54.3311 360.948 53.8511 360.72C53.3831 360.48 52.8611 360.36 52.2851 360.36C51.4571 360.36 50.7491 360.624 50.1611 361.152C49.5851 361.68 49.2551 362.412 49.1711 363.348H55.3991ZM60.8912 360.738C61.1792 360.174 61.5872 359.736 62.1152 359.424C62.6552 359.112 63.3092 358.956 64.0772 358.956V360.648H63.6452C61.8092 360.648 60.8912 361.644 60.8912 363.636V369H59.2532V359.136H60.8912V360.738ZM70.1549 364.05C70.1549 363.03 70.3589 362.142 70.7669 361.386C71.1749 360.618 71.7389 360.024 72.4589 359.604C73.1909 359.184 74.0249 358.974 74.9609 358.974C76.1729 358.974 77.1689 359.268 77.9489 359.856C78.7409 360.444 79.2629 361.26 79.5149 362.304H77.7509C77.5829 361.704 77.2529 361.23 76.7609 360.882C76.2809 360.534 75.6809 360.36 74.9609 360.36C74.0249 360.36 73.2689 360.684 72.6929 361.332C72.1169 361.968 71.8289 362.874 71.8289 364.05C71.8289 365.238 72.1169 366.156 72.6929 366.804C73.2689 367.452 74.0249 367.776 74.9609 367.776C75.6809 367.776 76.2809 367.608 76.7609 367.272C77.2409 366.936 77.5709 366.456 77.7509 365.832H79.5149C79.2509 366.84 78.7229 367.65 77.9309 368.262C77.1389 368.862 76.1489 369.162 74.9609 369.162C74.0249 369.162 73.1909 368.952 72.4589 368.532C71.7389 368.112 71.1749 367.518 70.7669 366.75C70.3589 365.982 70.1549 365.082 70.1549 364.05ZM86.0025 369.162C85.0785 369.162 84.2385 368.952 83.4825 368.532C82.7385 368.112 82.1505 367.518 81.7185 366.75C81.2985 365.97 81.0885 365.07 81.0885 364.05C81.0885 363.042 81.3045 362.154 81.7365 361.386C82.1805 360.606 82.7805 360.012 83.5365 359.604C84.2925 359.184 85.1385 358.974 86.0745 358.974C87.0105 358.974 87.8565 359.184 88.6125 359.604C89.3685 360.012 89.9625 360.6 90.3945 361.368C90.8385 362.136 91.0605 363.03 91.0605 364.05C91.0605 365.07 90.8325 365.97 90.3765 366.75C89.9325 367.518 89.3265 368.112 88.5585 368.532C87.7905 368.952 86.9385 369.162 86.0025 369.162ZM86.0025 367.722C86.5905 367.722 87.1425 367.584 87.6585 367.308C88.1745 367.032 88.5885 366.618 88.9005 366.066C89.2245 365.514 89.3865 364.842 89.3865 364.05C89.3865 363.258 89.2305 362.586 88.9185 362.034C88.6065 361.482 88.1985 361.074 87.6945 360.81C87.1905 360.534 86.6445 360.396 86.0565 360.396C85.4565 360.396 84.9045 360.534 84.4005 360.81C83.9085 361.074 83.5125 361.482 83.2125 362.034C82.9125 362.586 82.7625 363.258 82.7625 364.05C82.7625 364.854 82.9065 365.532 83.1945 366.084C83.4945 366.636 83.8905 367.05 84.3825 367.326C84.8745 367.59 85.4145 367.722 86.0025 367.722ZM105.076 358.956C105.844 358.956 106.528 359.118 107.128 359.442C107.728 359.754 108.202 360.228 108.55 360.864C108.898 361.5 109.072 362.274 109.072 363.186V369H107.452V363.42C107.452 362.436 107.206 361.686 106.714 361.17C106.234 360.642 105.58 360.378 104.752 360.378C103.9 360.378 103.222 360.654 102.718 361.206C102.214 361.746 101.962 362.532 101.962 363.564V369H100.342V363.42C100.342 362.436 100.096 361.686 99.6041 361.17C99.1241 360.642 98.4701 360.378 97.6421 360.378C96.7901 360.378 96.1121 360.654 95.6081 361.206C95.1041 361.746 94.8521 362.532 94.8521 363.564V369H93.2141V359.136H94.8521V360.558C95.1761 360.042 95.6081 359.646 96.1481 359.37C96.7001 359.094 97.3061 358.956 97.9661 358.956C98.7941 358.956 99.5261 359.142 100.162 359.514C100.798 359.886 101.272 360.432 101.584 361.152C101.86 360.456 102.316 359.916 102.952 359.532C103.588 359.148 104.296 358.956 105.076 358.956ZM113.397 360.954C113.721 360.39 114.201 359.922 114.837 359.55C115.485 359.166 116.235 358.974 117.087 358.974C117.963 358.974 118.755 359.184 119.463 359.604C120.183 360.024 120.747 360.618 121.155 361.386C121.563 362.142 121.767 363.024 121.767 364.032C121.767 365.028 121.563 365.916 121.155 366.696C120.747 367.476 120.183 368.082 119.463 368.514C118.755 368.946 117.963 369.162 117.087 369.162C116.247 369.162 115.503 368.976 114.855 368.604C114.219 368.22 113.733 367.746 113.397 367.182V373.68H111.759V359.136H113.397V360.954ZM120.093 364.032C120.093 363.288 119.943 362.64 119.643 362.088C119.343 361.536 118.935 361.116 118.419 360.828C117.915 360.54 117.357 360.396 116.745 360.396C116.145 360.396 115.587 360.546 115.071 360.846C114.567 361.134 114.159 361.56 113.847 362.124C113.547 362.676 113.397 363.318 113.397 364.05C113.397 364.794 113.547 365.448 113.847 366.012C114.159 366.564 114.567 366.99 115.071 367.29C115.587 367.578 116.145 367.722 116.745 367.722C117.357 367.722 117.915 367.578 118.419 367.29C118.935 366.99 119.343 366.564 119.643 366.012C119.943 365.448 120.093 364.788 120.093 364.032ZM123.311 364.032C123.311 363.024 123.515 362.142 123.923 361.386C124.331 360.618 124.889 360.024 125.597 359.604C126.317 359.184 127.115 358.974 127.991 358.974C128.855 358.974 129.605 359.16 130.241 359.532C130.877 359.904 131.351 360.372 131.663 360.936V359.136H133.319V369H131.663V367.164C131.339 367.74 130.853 368.22 130.205 368.604C129.569 368.976 128.825 369.162 127.973 369.162C127.097 369.162 126.305 368.946 125.597 368.514C124.889 368.082 124.331 367.476 123.923 366.696C123.515 365.916 123.311 365.028 123.311 364.032ZM131.663 364.05C131.663 363.306 131.513 362.658 131.213 362.106C130.913 361.554 130.505 361.134 129.989 360.846C129.485 360.546 128.927 360.396 128.315 360.396C127.703 360.396 127.145 360.54 126.641 360.828C126.137 361.116 125.735 361.536 125.435 362.088C125.135 362.64 124.985 363.288 124.985 364.032C124.985 364.788 125.135 365.448 125.435 366.012C125.735 366.564 126.137 366.99 126.641 367.29C127.145 367.578 127.703 367.722 128.315 367.722C128.927 367.722 129.485 367.578 129.989 367.29C130.505 366.99 130.913 366.564 131.213 366.012C131.513 365.448 131.663 364.794 131.663 364.05ZM140.893 358.956C142.093 358.956 143.065 359.322 143.809 360.054C144.553 360.774 144.925 361.818 144.925 363.186V369H143.305V363.42C143.305 362.436 143.059 361.686 142.567 361.17C142.075 360.642 141.403 360.378 140.551 360.378C139.687 360.378 138.997 360.648 138.481 361.188C137.977 361.728 137.725 362.514 137.725 363.546V369H136.087V359.136H137.725V360.54C138.049 360.036 138.487 359.646 139.039 359.37C139.603 359.094 140.221 358.956 140.893 358.956ZM148.447 357.534C148.135 357.534 147.871 357.426 147.655 357.21C147.439 356.994 147.331 356.73 147.331 356.418C147.331 356.106 147.439 355.842 147.655 355.626C147.871 355.41 148.135 355.302 148.447 355.302C148.747 355.302 148.999 355.41 149.203 355.626C149.419 355.842 149.527 356.106 149.527 356.418C149.527 356.73 149.419 356.994 149.203 357.21C148.999 357.426 148.747 357.534 148.447 357.534ZM149.239 359.136V369H147.601V359.136H149.239ZM156.333 369.162C155.409 369.162 154.569 368.952 153.813 368.532C153.069 368.112 152.481 367.518 152.049 366.75C151.629 365.97 151.419 365.07 151.419 364.05C151.419 363.042 151.635 362.154 152.067 361.386C152.511 360.606 153.111 360.012 153.867 359.604C154.623 359.184 155.469 358.974 156.405 358.974C157.341 358.974 158.187 359.184 158.943 359.604C159.699 360.012 160.293 360.6 160.725 361.368C161.169 362.136 161.391 363.03 161.391 364.05C161.391 365.07 161.163 365.97 160.707 366.75C160.263 367.518 159.657 368.112 158.889 368.532C158.121 368.952 157.269 369.162 156.333 369.162ZM156.333 367.722C156.921 367.722 157.473 367.584 157.989 367.308C158.505 367.032 158.919 366.618 159.231 366.066C159.555 365.514 159.717 364.842 159.717 364.05C159.717 363.258 159.561 362.586 159.249 362.034C158.937 361.482 158.529 361.074 158.025 360.81C157.521 360.534 156.975 360.396 156.387 360.396C155.787 360.396 155.235 360.534 154.731 360.81C154.239 361.074 153.843 361.482 153.543 362.034C153.243 362.586 153.093 363.258 153.093 364.05C153.093 364.854 153.237 365.532 153.525 366.084C153.825 366.636 154.221 367.05 154.713 367.326C155.205 367.59 155.745 367.722 156.333 367.722ZM168.35 358.956C169.55 358.956 170.522 359.322 171.266 360.054C172.01 360.774 172.382 361.818 172.382 363.186V369H170.762V363.42C170.762 362.436 170.516 361.686 170.024 361.17C169.532 360.642 168.86 360.378 168.008 360.378C167.144 360.378 166.454 360.648 165.938 361.188C165.434 361.728 165.182 362.514 165.182 363.546V369H163.544V359.136H165.182V360.54C165.506 360.036 165.944 359.646 166.496 359.37C167.06 359.094 167.678 358.956 168.35 358.956ZM175.58 369.108C175.268 369.108 175.004 369 174.788 368.784C174.572 368.568 174.464 368.304 174.464 367.992C174.464 367.68 174.572 367.416 174.788 367.2C175.004 366.984 175.268 366.876 175.58 366.876C175.88 366.876 176.132 366.984 176.336 367.2C176.552 367.416 176.66 367.68 176.66 367.992C176.66 368.304 176.552 368.568 176.336 368.784C176.132 369 175.88 369.108 175.58 369.108Z" fill="#69697B"/>
<path d="M23.46 69.58C11.34 69.58 2.1 78.46 2.1 91C2.1 103.54 11.34 112.36 23.52 112.36C34.68 112.36 42.3 104.56 43.98 96.04V88.72H21.3V95.14H35.7C34.44 101.08 30.3 104.8 23.82 104.8C16.02 104.8 10.74 99.52 10.74 91C10.74 82.66 15.96 77.32 23.46 77.32C27.9 77.32 31.38 79.18 33.3 82.72H42.96C40.26 74.32 32.82 69.58 23.46 69.58ZM64.4747 85.12C68.7947 85.12 72.2747 87.88 72.3947 92.26H56.6147C57.2747 87.7 60.4547 85.12 64.4747 85.12ZM80.2547 101.56H71.1947C70.1147 103.78 68.1347 105.58 64.5347 105.58C60.3347 105.58 56.9747 102.82 56.5547 97.9H80.8547C81.0347 96.82 81.0947 95.74 81.0947 94.66C81.0947 84.76 74.3147 78.22 64.7147 78.22C54.8747 78.22 48.0347 84.88 48.0347 95.38C48.0347 105.82 55.0547 112.54 64.7147 112.54C72.9347 112.54 78.4547 107.68 80.2547 101.56ZM88.5459 101.68C88.5459 109.3 92.8059 112 99.1659 112H104.446V104.92H100.546C97.9059 104.92 97.0059 103.96 97.0059 101.74V85.66H104.446V78.76H97.0059V70.54H88.5459V78.76H84.5859V85.66H88.5459V101.68ZM138.945 101.98L130.365 78.76H120.945L134.265 111.16L127.065 127.72H136.005L156.585 78.76H147.645L138.945 101.98ZM193.213 95.38C193.213 84.88 185.713 78.22 176.113 78.22C166.513 78.22 159.013 84.88 159.013 95.38C159.013 105.82 166.273 112.54 175.873 112.54C185.533 112.54 193.213 105.82 193.213 95.38ZM167.533 95.38C167.533 88.72 171.553 85.54 175.993 85.54C180.433 85.54 184.573 88.72 184.573 95.38C184.573 101.98 180.313 105.22 175.873 105.22C171.373 105.22 167.533 101.98 167.533 95.38ZM230.754 78.76H222.294V97.06C222.294 102.4 219.414 105.28 214.854 105.28C210.414 105.28 207.474 102.4 207.474 97.06V78.76H199.074V98.26C199.074 107.38 204.654 112.42 212.394 112.42C216.534 112.42 220.194 110.62 222.294 107.8V112H230.754V78.76ZM247.442 95.44C247.442 89.02 250.442 87.1 255.422 87.1H257.642V78.28C253.022 78.28 249.542 80.5 247.442 83.92V78.76H239.042V112H247.442V95.44ZM275.437 95.38C275.437 105.82 282.277 112.54 291.877 112.54C300.157 112.54 305.737 107.86 307.537 100.78H298.477C297.457 103.78 295.297 105.34 291.817 105.34C287.137 105.34 284.017 101.86 284.017 95.38C284.017 88.9 287.137 85.36 291.817 85.36C295.297 85.36 297.517 87.16 298.477 89.98H307.537C305.737 82.54 300.157 78.22 291.877 78.22C282.277 78.22 275.437 84.94 275.437 95.38ZM345.071 78.76H336.611V97.06C336.611 102.4 333.731 105.28 329.171 105.28C324.731 105.28 321.791 102.4 321.791 97.06V78.76H313.391V98.26C313.391 107.38 318.971 112.42 326.711 112.42C330.851 112.42 334.511 110.62 336.611 107.8V112H345.071V78.76ZM353.359 112H361.759V78.76H353.359V112ZM357.619 74.8C360.559 74.8 362.779 72.64 362.779 69.88C362.779 67.12 360.559 64.96 357.619 64.96C354.619 64.96 352.459 67.12 352.459 69.88C352.459 72.64 354.619 74.8 357.619 74.8ZM395.858 102.52C395.618 90.34 377.198 94.12 377.198 88.06C377.198 86.14 378.818 84.88 381.938 84.88C385.238 84.88 387.278 86.62 387.518 89.2H395.558C395.078 82.6 390.218 78.22 382.178 78.22C373.958 78.22 369.038 82.66 369.038 88.18C369.038 100.36 387.818 96.58 387.818 102.52C387.818 104.44 386.018 105.94 382.718 105.94C379.358 105.94 377.018 104.02 376.718 101.5H368.258C368.618 107.68 374.438 112.54 382.778 112.54C390.878 112.54 395.858 108.22 395.858 102.52ZM402.753 112H411.153V78.76H402.753V112ZM407.013 74.8C409.953 74.8 412.173 72.64 412.173 69.88C412.173 67.12 409.953 64.96 407.013 64.96C404.013 64.96 401.853 67.12 401.853 69.88C401.853 72.64 404.013 74.8 407.013 74.8ZM442.733 112H451.133V92.5C451.133 83.32 445.612 78.28 437.873 78.28C433.613 78.28 430.013 80.08 427.853 82.9V78.76H419.453V112H427.853V93.64C427.853 88.3 430.793 85.42 435.353 85.42C439.793 85.42 442.733 88.3 442.733 93.64V112ZM473.4 85.12C477.72 85.12 481.2 87.88 481.32 92.26H465.54C466.2 87.7 469.38 85.12 473.4 85.12ZM489.18 101.56H480.12C479.04 103.78 477.06 105.58 473.46 105.58C469.26 105.58 465.9 102.82 465.48 97.9H489.78C489.96 96.82 490.02 95.74 490.02 94.66C490.02 84.76 483.24 78.22 473.64 78.22C463.8 78.22 456.96 84.88 456.96 95.38C456.96 105.82 463.98 112.54 473.64 112.54C481.86 112.54 487.38 107.68 489.18 101.56ZM1.98 165.26C1.98 175.64 8.7 182.54 17.16 182.54C22.38 182.54 26.1 180.14 28.08 177.08V182H36.6V137.6H28.08V153.38C25.8 150.26 21.6 148.22 17.22 148.22C8.7 148.22 1.98 154.88 1.98 165.26ZM28.14 165.38C28.14 171.68 23.94 175.16 19.32 175.16C14.82 175.16 10.56 171.56 10.56 165.26C10.56 158.96 14.82 155.6 19.32 155.6C23.94 155.6 28.14 159.08 28.14 165.38ZM59.0841 155.12C63.4041 155.12 66.8841 157.88 67.0041 162.26H51.2241C51.8841 157.7 55.0641 155.12 59.0841 155.12ZM74.8641 171.56H65.8041C64.7241 173.78 62.7441 175.58 59.1441 175.58C54.9441 175.58 51.5841 172.82 51.1641 167.9H75.4641C75.6441 166.82 75.7041 165.74 75.7041 164.66C75.7041 154.76 68.9241 148.22 59.3241 148.22C49.4841 148.22 42.6441 154.88 42.6441 165.38C42.6441 175.82 49.6641 182.54 59.3241 182.54C67.5441 182.54 73.0641 177.68 74.8641 171.56ZM81.8353 182H90.2353V137.6H81.8353V182ZM98.5345 182H106.935V148.76H98.5345V182ZM102.795 144.8C105.735 144.8 107.955 142.64 107.955 139.88C107.955 137.12 105.735 134.96 102.795 134.96C99.7945 134.96 97.6345 137.12 97.6345 139.88C97.6345 142.64 99.7945 144.8 102.795 144.8ZM111.694 148.76L123.934 182H134.134L146.434 148.76H137.494L129.094 174.26L120.694 148.76H111.694ZM165.432 155.12C169.752 155.12 173.232 157.88 173.352 162.26H157.572C158.232 157.7 161.412 155.12 165.432 155.12ZM181.212 171.56H172.152C171.072 173.78 169.092 175.58 165.492 175.58C161.292 175.58 157.932 172.82 157.512 167.9H181.812C181.992 166.82 182.052 165.74 182.052 164.66C182.052 154.76 175.272 148.22 165.672 148.22C155.832 148.22 148.992 154.88 148.992 165.38C148.992 175.82 156.012 182.54 165.672 182.54C173.892 182.54 179.412 177.68 181.212 171.56ZM196.583 165.44C196.583 159.02 199.583 157.1 204.563 157.1H206.783V148.28C202.163 148.28 198.683 150.5 196.583 153.92V148.76H188.183V182H196.583V165.44ZM226.721 155.12C231.041 155.12 234.521 157.88 234.641 162.26H218.861C219.521 157.7 222.701 155.12 226.721 155.12ZM242.501 171.56H233.441C232.361 173.78 230.381 175.58 226.781 175.58C222.581 175.58 219.221 172.82 218.801 167.9H243.101C243.281 166.82 243.341 165.74 243.341 164.66C243.341 154.76 236.561 148.22 226.961 148.22C217.121 148.22 210.281 154.88 210.281 165.38C210.281 175.82 217.301 182.54 226.961 182.54C235.181 182.54 240.701 177.68 242.501 171.56ZM247.312 165.26C247.312 175.64 254.032 182.54 262.492 182.54C267.712 182.54 271.432 180.14 273.412 177.08V182H281.932V137.6H273.412V153.38C271.132 150.26 266.932 148.22 262.552 148.22C254.032 148.22 247.312 154.88 247.312 165.26ZM273.472 165.38C273.472 171.68 269.272 175.16 264.652 175.16C260.152 175.16 255.892 171.56 255.892 165.26C255.892 158.96 260.152 155.6 264.652 155.6C269.272 155.6 273.472 159.08 273.472 165.38ZM312.833 165.44C312.833 159.02 315.833 157.1 320.813 157.1H323.033V148.28C318.413 148.28 314.933 150.5 312.833 153.92V148.76H304.433V182H312.833V165.44ZM328.691 182H337.091V148.76H328.691V182ZM332.951 144.8C335.891 144.8 338.111 142.64 338.111 139.88C338.111 137.12 335.891 134.96 332.951 134.96C329.951 134.96 327.791 137.12 327.791 139.88C327.791 142.64 329.951 144.8 332.951 144.8ZM343.23 165.26C343.23 175.64 349.95 182.54 358.41 182.54C363.63 182.54 367.41 179.96 369.39 177.08V182.24C369.39 188.42 365.79 191.06 361.17 191.06C356.97 191.06 353.85 189.08 353.01 186.08H344.67C345.51 193.7 352.05 198.38 361.41 198.38C372.33 198.38 377.85 191.24 377.85 182.24V148.76H369.39V153.5C367.41 150.62 363.63 148.22 358.41 148.22C349.95 148.22 343.23 154.88 343.23 165.26ZM369.39 165.38C369.39 171.68 365.19 175.16 360.57 175.16C356.07 175.16 351.81 171.56 351.81 165.26C351.81 158.96 356.07 155.6 360.57 155.6C365.19 155.6 369.39 159.08 369.39 165.38ZM386.054 182H394.454V163.64C394.454 158.3 397.394 155.42 401.954 155.42C406.394 155.42 409.334 158.3 409.334 163.64V182H417.734V162.5C417.734 153.32 412.274 148.28 404.774 148.28C400.334 148.28 396.614 150.08 394.454 152.9V137.6H386.054V182ZM427.042 171.68C427.042 179.3 431.302 182 437.662 182H442.942V174.92H439.042C436.402 174.92 435.502 173.96 435.502 171.74V155.66H442.942V148.76H435.502V140.54H427.042V148.76H423.082V155.66H427.042V171.68ZM464.601 171.68C464.601 179.3 468.861 182 475.221 182H480.501V174.92H476.601C473.961 174.92 473.061 173.96 473.061 171.74V155.66H480.501V148.76H473.061V140.54H464.601V148.76H460.641V155.66H464.601V171.68ZM518.642 165.38C518.642 154.88 511.142 148.22 501.542 148.22C491.942 148.22 484.442 154.88 484.442 165.38C484.442 175.82 491.702 182.54 501.302 182.54C510.962 182.54 518.642 175.82 518.642 165.38ZM492.962 165.38C492.962 158.72 496.982 155.54 501.422 155.54C505.862 155.54 510.002 158.72 510.002 165.38C510.002 171.98 505.742 175.22 501.302 175.22C496.802 175.22 492.962 171.98 492.962 165.38Z" fill="#212244"/>
<path d="M18.3 241.98L9.72 218.76H0.3L13.62 251.16L6.42 267.72H15.36L35.94 218.76H27L18.3 241.98ZM72.5681 235.38C72.5681 224.88 65.0681 218.22 55.4681 218.22C45.8681 218.22 38.3681 224.88 38.3681 235.38C38.3681 245.82 45.6281 252.54 55.2281 252.54C64.8881 252.54 72.5681 245.82 72.5681 235.38ZM46.8881 235.38C46.8881 228.72 50.9081 225.54 55.3481 225.54C59.7881 225.54 63.9281 228.72 63.9281 235.38C63.9281 241.98 59.6681 245.22 55.2281 245.22C50.7281 245.22 46.8881 241.98 46.8881 235.38ZM110.11 218.76H101.65V237.06C101.65 242.4 98.7698 245.28 94.2098 245.28C89.7698 245.28 86.8298 242.4 86.8298 237.06V218.76H78.4298V238.26C78.4298 247.38 84.0098 252.42 91.7498 252.42C95.8898 252.42 99.5498 250.62 101.65 247.8V252H110.11V218.76ZM126.798 235.44C126.798 229.02 129.798 227.1 134.778 227.1H136.998V218.28C132.378 218.28 128.898 220.5 126.798 223.92V218.76H118.398V252H126.798V235.44ZM154.792 235.26C154.792 245.64 161.513 252.54 169.973 252.54C175.193 252.54 178.913 250.14 180.893 247.08V252H189.413V207.6H180.893V223.38C178.613 220.26 174.413 218.22 170.033 218.22C161.513 218.22 154.792 224.88 154.792 235.26ZM180.953 235.38C180.953 241.68 176.753 245.16 172.133 245.16C167.633 245.16 163.373 241.56 163.373 235.26C163.373 228.96 167.633 225.6 172.133 225.6C176.753 225.6 180.953 229.08 180.953 235.38ZM229.717 235.38C229.717 224.88 222.217 218.22 212.617 218.22C203.017 218.22 195.517 224.88 195.517 235.38C195.517 245.82 202.777 252.54 212.377 252.54C222.037 252.54 229.717 245.82 229.717 235.38ZM204.037 235.38C204.037 228.72 208.057 225.54 212.497 225.54C216.937 225.54 221.077 228.72 221.077 235.38C221.077 241.98 216.817 245.22 212.377 245.22C207.877 245.22 204.037 241.98 204.037 235.38ZM267.978 235.38C267.978 224.88 260.478 218.22 250.878 218.22C241.278 218.22 233.778 224.88 233.778 235.38C233.778 245.82 241.038 252.54 250.638 252.54C260.298 252.54 267.978 245.82 267.978 235.38ZM242.298 235.38C242.298 228.72 246.318 225.54 250.758 225.54C255.198 225.54 259.338 228.72 259.338 235.38C259.338 241.98 255.078 245.22 250.638 245.22C246.138 245.22 242.298 241.98 242.298 235.38ZM282.54 235.44C282.54 229.02 285.54 227.1 290.52 227.1H292.74V218.28C288.12 218.28 284.64 220.5 282.54 223.92V218.76H274.14V252H282.54V235.44Z" fill="#F94A3D"/>
<rect x="1" width="229" height="46" rx="23" fill="#FDECEC"/>
<rect x="184.5" y="0.5" width="45" height="45" rx="22.5" fill="white" stroke="#FDECEC"/>
<path d="M36.526 16.49V29H34.474V20.432L30.658 29H29.236L25.402 20.432V29H23.35V16.49H25.564L29.956 26.3L34.33 16.49H36.526ZM43.525 29.162C42.589 29.162 41.743 28.952 40.987 28.532C40.231 28.1 39.637 27.5 39.205 26.732C38.773 25.952 38.557 25.052 38.557 24.032C38.557 23.024 38.779 22.13 39.223 21.35C39.667 20.57 40.273 19.97 41.041 19.55C41.809 19.13 42.667 18.92 43.615 18.92C44.563 18.92 45.421 19.13 46.189 19.55C46.957 19.97 47.563 20.57 48.007 21.35C48.451 22.13 48.673 23.024 48.673 24.032C48.673 25.04 48.445 25.934 47.989 26.714C47.533 27.494 46.909 28.1 46.117 28.532C45.337 28.952 44.473 29.162 43.525 29.162ZM43.525 27.38C44.053 27.38 44.545 27.254 45.001 27.002C45.469 26.75 45.847 26.372 46.135 25.868C46.423 25.364 46.567 24.752 46.567 24.032C46.567 23.312 46.429 22.706 46.153 22.214C45.877 21.71 45.511 21.332 45.055 21.08C44.599 20.828 44.107 20.702 43.579 20.702C43.051 20.702 42.559 20.828 42.103 21.08C41.659 21.332 41.305 21.71 41.041 22.214C40.777 22.706 40.645 23.312 40.645 24.032C40.645 25.1 40.915 25.928 41.455 26.516C42.007 27.092 42.697 27.38 43.525 27.38ZM52.7536 20.522C53.0536 20.018 53.4496 19.628 53.9416 19.352C54.4456 19.064 55.0396 18.92 55.7236 18.92V21.044H55.2016C54.3976 21.044 53.7856 21.248 53.3656 21.656C52.9576 22.064 52.7536 22.772 52.7536 23.78V29H50.7016V19.082H52.7536V20.522ZM66.6998 23.798C66.6998 24.17 66.6758 24.506 66.6278 24.806H59.0498C59.1098 25.598 59.4038 26.234 59.9318 26.714C60.4598 27.194 61.1078 27.434 61.8758 27.434C62.9798 27.434 63.7598 26.972 64.2158 26.048H66.4298C66.1298 26.96 65.5838 27.71 64.7918 28.298C64.0118 28.874 63.0398 29.162 61.8758 29.162C60.9278 29.162 60.0758 28.952 59.3198 28.532C58.5758 28.1 57.9878 27.5 57.5558 26.732C57.1358 25.952 56.9258 25.052 56.9258 24.032C56.9258 23.012 57.1298 22.118 57.5378 21.35C57.9578 20.57 58.5398 19.97 59.2838 19.55C60.0398 19.13 60.9038 18.92 61.8758 18.92C62.8118 18.92 63.6458 19.124 64.3778 19.532C65.1098 19.94 65.6798 20.516 66.0878 21.26C66.4958 21.992 66.6998 22.838 66.6998 23.798ZM64.5578 23.15C64.5458 22.394 64.2758 21.788 63.7478 21.332C63.2198 20.876 62.5658 20.648 61.7858 20.648C61.0778 20.648 60.4718 20.876 59.9678 21.332C59.4638 21.776 59.1638 22.382 59.0678 23.15H64.5578ZM75.7889 20.756V26.246C75.7889 26.618 75.8729 26.888 76.0409 27.056C76.2209 27.212 76.5209 27.29 76.9409 27.29H78.2009V29H76.5809C75.6569 29 74.9489 28.784 74.4569 28.352C73.9649 27.92 73.7189 27.218 73.7189 26.246V20.756H72.5489V19.082H73.7189V16.616H75.7889V19.082H78.2009V20.756H75.7889ZM85.2222 18.92C85.9782 18.92 86.6502 19.082 87.2382 19.406C87.8382 19.73 88.3062 20.21 88.6422 20.846C88.9902 21.482 89.1642 22.25 89.1642 23.15V29H87.1302V23.456C87.1302 22.568 86.9082 21.89 86.4642 21.422C86.0202 20.942 85.4142 20.702 84.6462 20.702C83.8782 20.702 83.2662 20.942 82.8102 21.422C82.3662 21.89 82.1442 22.568 82.1442 23.456V29H80.0922V15.68H82.1442V20.234C82.4922 19.814 82.9302 19.49 83.4582 19.262C83.9982 19.034 84.5862 18.92 85.2222 18.92ZM91.0976 23.996C91.0976 23 91.3016 22.118 91.7096 21.35C92.1296 20.582 92.6936 19.988 93.4016 19.568C94.1216 19.136 94.9136 18.92 95.7776 18.92C96.5576 18.92 97.2356 19.076 97.8116 19.388C98.3996 19.688 98.8676 20.066 99.2156 20.522V19.082H101.286V29H99.2156V27.524C98.8676 27.992 98.3936 28.382 97.7936 28.694C97.1936 29.006 96.5096 29.162 95.7416 29.162C94.8896 29.162 94.1096 28.946 93.4016 28.514C92.6936 28.07 92.1296 27.458 91.7096 26.678C91.3016 25.886 91.0976 24.992 91.0976 23.996ZM99.2156 24.032C99.2156 23.348 99.0716 22.754 98.7836 22.25C98.5076 21.746 98.1416 21.362 97.6856 21.098C97.2296 20.834 96.7376 20.702 96.2096 20.702C95.6816 20.702 95.1896 20.834 94.7336 21.098C94.2776 21.35 93.9056 21.728 93.6176 22.232C93.3416 22.724 93.2036 23.312 93.2036 23.996C93.2036 24.68 93.3416 25.28 93.6176 25.796C93.9056 26.312 94.2776 26.708 94.7336 26.984C95.2016 27.248 95.6936 27.38 96.2096 27.38C96.7376 27.38 97.2296 27.248 97.6856 26.984C98.1416 26.72 98.5076 26.336 98.7836 25.832C99.0716 25.316 99.2156 24.716 99.2156 24.032ZM108.985 18.92C109.765 18.92 110.461 19.082 111.073 19.406C111.697 19.73 112.183 20.21 112.531 20.846C112.879 21.482 113.053 22.25 113.053 23.15V29H111.019V23.456C111.019 22.568 110.797 21.89 110.353 21.422C109.909 20.942 109.303 20.702 108.535 20.702C107.767 20.702 107.155 20.942 106.699 21.422C106.255 21.89 106.033 22.568 106.033 23.456V29H103.981V19.082H106.033V20.216C106.369 19.808 106.795 19.49 107.311 19.262C107.839 19.034 108.397 18.92 108.985 18.92ZM127.708 16.49V18.164H122.398V21.854H126.538V23.528H122.398V29H120.346V16.49H127.708ZM128.926 23.996C128.926 23 129.13 22.118 129.538 21.35C129.958 20.582 130.522 19.988 131.23 19.568C131.95 19.136 132.742 18.92 133.606 18.92C134.386 18.92 135.064 19.076 135.64 19.388C136.228 19.688 136.696 20.066 137.044 20.522V19.082H139.114V29H137.044V27.524C136.696 27.992 136.222 28.382 135.622 28.694C135.022 29.006 134.338 29.162 133.57 29.162C132.718 29.162 131.938 28.946 131.23 28.514C130.522 28.07 129.958 27.458 129.538 26.678C129.13 25.886 128.926 24.992 128.926 23.996ZM137.044 24.032C137.044 23.348 136.9 22.754 136.612 22.25C136.336 21.746 135.97 21.362 135.514 21.098C135.058 20.834 134.566 20.702 134.038 20.702C133.51 20.702 133.018 20.834 132.562 21.098C132.106 21.35 131.734 21.728 131.446 22.232C131.17 22.724 131.032 23.312 131.032 23.996C131.032 24.68 131.17 25.28 131.446 25.796C131.734 26.312 132.106 26.708 132.562 26.984C133.03 27.248 133.522 27.38 134.038 27.38C134.566 27.38 135.058 27.248 135.514 26.984C135.97 26.72 136.336 26.336 136.612 25.832C136.9 25.316 137.044 24.716 137.044 24.032ZM145.409 29.162C144.629 29.162 143.927 29.024 143.303 28.748C142.691 28.46 142.205 28.076 141.845 27.596C141.485 27.104 141.293 26.558 141.269 25.958H143.393C143.429 26.378 143.627 26.732 143.987 27.02C144.359 27.296 144.821 27.434 145.373 27.434C145.949 27.434 146.393 27.326 146.705 27.11C147.029 26.882 147.191 26.594 147.191 26.246C147.191 25.874 147.011 25.598 146.651 25.418C146.303 25.238 145.745 25.04 144.977 24.824C144.233 24.62 143.627 24.422 143.159 24.23C142.691 24.038 142.283 23.744 141.935 23.348C141.599 22.952 141.431 22.43 141.431 21.782C141.431 21.254 141.587 20.774 141.899 20.342C142.211 19.898 142.655 19.55 143.231 19.298C143.819 19.046 144.491 18.92 145.247 18.92C146.375 18.92 147.281 19.208 147.965 19.784C148.661 20.348 149.033 21.122 149.081 22.106H147.029C146.993 21.662 146.813 21.308 146.489 21.044C146.165 20.78 145.727 20.648 145.175 20.648C144.635 20.648 144.221 20.75 143.933 20.954C143.645 21.158 143.501 21.428 143.501 21.764C143.501 22.028 143.597 22.25 143.789 22.43C143.981 22.61 144.215 22.754 144.491 22.862C144.767 22.958 145.175 23.084 145.715 23.24C146.435 23.432 147.023 23.63 147.479 23.834C147.947 24.026 148.349 24.314 148.685 24.698C149.021 25.082 149.195 25.592 149.207 26.228C149.207 26.792 149.051 27.296 148.739 27.74C148.427 28.184 147.983 28.532 147.407 28.784C146.843 29.036 146.177 29.162 145.409 29.162ZM153.818 20.756V26.246C153.818 26.618 153.902 26.888 154.07 27.056C154.25 27.212 154.55 27.29 154.97 27.29H156.23V29H154.61C153.686 29 152.978 28.784 152.486 28.352C151.994 27.92 151.748 27.218 151.748 26.246V20.756H150.578V19.082H151.748V16.616H153.818V19.082H156.23V20.756H153.818ZM167.211 23.798C167.211 24.17 167.187 24.506 167.139 24.806H159.561C159.621 25.598 159.915 26.234 160.443 26.714C160.971 27.194 161.619 27.434 162.387 27.434C163.491 27.434 164.271 26.972 164.727 26.048H166.941C166.641 26.96 166.095 27.71 165.303 28.298C164.523 28.874 163.551 29.162 162.387 29.162C161.439 29.162 160.587 28.952 159.831 28.532C159.087 28.1 158.499 27.5 158.067 26.732C157.647 25.952 157.437 25.052 157.437 24.032C157.437 23.012 157.641 22.118 158.049 21.35C158.469 20.57 159.051 19.97 159.795 19.55C160.551 19.13 161.415 18.92 162.387 18.92C163.323 18.92 164.157 19.124 164.889 19.532C165.621 19.94 166.191 20.516 166.599 21.26C167.007 21.992 167.211 22.838 167.211 23.798ZM165.069 23.15C165.057 22.394 164.787 21.788 164.259 21.332C163.731 20.876 163.077 20.648 162.297 20.648C161.589 20.648 160.983 20.876 160.479 21.332C159.975 21.776 159.675 22.382 159.579 23.15H165.069ZM171.283 20.522C171.583 20.018 171.979 19.628 172.471 19.352C172.975 19.064 173.569 18.92 174.253 18.92V21.044H173.731C172.927 21.044 172.315 21.248 171.895 21.656C171.487 22.064 171.283 22.772 171.283 23.78V29H169.231V19.082H171.283V20.522Z" fill="#F94A3D"/>
<path d="M205.392 27.5565L206.359 27.4957C206.826 27.4661 207.174 27.0654 207.14 26.6013L205.83 9.46342C205.795 8.99869 205.388 8.64561 204.922 8.67522L203.955 8.73604C203.488 8.76565 203.138 9.16658 203.173 9.63131L204.483 26.7691C204.519 27.233 204.925 27.5861 205.392 27.5565Z" fill="#F9B361"/>
<path opacity="0.19" d="M206.641 26.7326L205.317 9.39468C205.296 9.12118 205.361 8.88073 205.475 8.74491C205.663 8.86186 205.802 9.08978 205.823 9.36328L207.148 26.701C207.169 26.9739 207.066 27.2182 206.897 27.3572C206.764 27.237 206.662 27.0061 206.641 26.7326Z" fill="#FFF6F7"/>
<path d="M212.998 28.9732L213.958 29.1322C214.42 29.2084 214.853 28.8993 214.924 28.4393L217.554 11.5033C217.625 11.0441 217.309 10.6093 216.846 10.5325L215.887 10.3735C215.424 10.2973 214.991 10.6064 214.92 11.0663L212.289 28.0033C212.219 28.4615 212.536 28.8969 212.998 28.9732Z" fill="#F9B361"/>
<path opacity="0.19" d="M214.407 28.4556L217.068 11.3203C217.11 11.0504 217.229 10.8317 217.37 10.7252C217.527 10.882 217.611 11.1346 217.57 11.4037L214.909 28.539C214.867 28.8089 214.71 29.0217 214.513 29.1202C214.412 28.9728 214.365 28.7255 214.407 28.4556Z" fill="#FFF6F7"/>
<path d="M204.675 27.946L205.619 27.73C206.073 27.6257 206.353 27.174 206.243 26.7204L202.178 9.98275C202.068 9.52828 201.61 9.2448 201.154 9.34843L200.212 9.56365C199.757 9.66872 199.477 10.1211 199.588 10.5747L203.652 27.3132C203.762 27.7662 204.22 28.0497 204.675 27.946Z" fill="#F9B361"/>
<path opacity="0.19" d="M205.772 26.9309L201.66 9.99734C201.595 9.73014 201.622 9.48172 201.71 9.32875C201.915 9.41444 202.089 9.61751 202.154 9.88386L206.266 26.8174C206.331 27.0846 206.268 27.3418 206.124 27.5068C205.974 27.4099 205.837 27.1981 205.772 26.9309Z" fill="#FFF6F7"/>
<path d="M209.528 27.8461L210.498 27.8772C210.966 27.8921 211.353 27.5264 211.362 27.0611L211.696 9.89829C211.706 9.43303 211.333 9.04331 210.865 9.02839L209.895 8.99812C209.427 8.9832 209.041 9.34809 209.032 9.81335L208.697 26.9762C208.689 27.4421 209.061 27.8312 209.528 27.8461Z" fill="#F9B361"/>
<path opacity="0.19" d="M210.853 27.1454L211.191 9.78222C211.196 9.5084 211.284 9.27502 211.411 9.15038C211.587 9.28516 211.704 9.52442 211.698 9.79823L211.36 27.1623C211.354 27.4361 211.228 27.6681 211.047 27.7914C210.926 27.6586 210.847 27.4192 210.853 27.1454Z" fill="#FFF6F7"/>
<path d="M202.287 30.6733L203.231 30.4601C203.685 30.3573 203.966 29.9061 203.857 29.4523L199.843 12.7033C199.734 12.2494 199.277 11.9643 198.822 12.067L197.878 12.2802C197.424 12.383 197.143 12.8342 197.251 13.2889L201.265 30.0378C201.374 30.4917 201.831 30.7769 202.287 30.6733Z" fill="#F9B361"/>
<path opacity="0.19" d="M203.387 29.6622L199.325 12.7167C199.261 12.4487 199.288 12.2008 199.378 12.0485C199.582 12.135 199.755 12.3389 199.819 12.6055L203.881 29.551C203.945 29.8176 203.881 30.0756 203.737 30.2401C203.588 30.1414 203.451 29.9288 203.387 29.6622Z" fill="#FFF6F7"/>
<path d="M211.426 29.8196L212.396 29.8814C212.863 29.9112 213.262 29.5584 213.285 29.0943L214.168 11.9566C214.192 11.4916 213.832 11.0907 213.365 11.0614L212.396 10.9996C211.929 10.9697 211.53 11.3226 211.507 11.7867L210.623 28.9238C210.6 29.3894 210.959 29.7897 211.426 29.8196Z" fill="#F9B361"/>
<path opacity="0.19" d="M212.773 29.1611L213.666 11.8247C213.681 11.5507 213.776 11.3213 213.906 11.2004C214.079 11.3403 214.188 11.584 214.173 11.8565L213.28 29.1944C213.266 29.4674 213.132 29.6956 212.946 29.813C212.83 29.6757 212.758 29.435 212.773 29.1611Z" fill="#FFF6F7"/>
<path d="M207.773 29.6028L208.741 29.5618C209.209 29.5417 209.567 29.1483 209.54 28.6835L208.584 11.5273C208.558 11.0616 208.158 10.7015 207.691 10.7207L206.722 10.7617C206.255 10.7824 205.898 11.1757 205.923 11.6408L206.879 28.7962C206.905 29.2619 207.305 29.6229 207.773 29.6028Z" fill="#F9B361"/>
<path opacity="0.19" d="M209.039 28.8057L208.072 11.4488C208.057 11.1748 208.128 10.9356 208.243 10.8025C208.429 10.9228 208.563 11.1538 208.579 11.4269L209.546 28.7838C209.561 29.0569 209.452 29.2984 209.281 29.4348C209.15 29.3113 209.054 29.0788 209.039 28.8057Z" fill="#FFF6F7"/>
<path d="M218.289 16.3621C217.074 16.3254 215.902 16.9015 215.153 17.9065C213.457 20.1837 210.417 21.5478 207.15 21.208C204.331 20.9144 201.994 19.421 200.711 17.3676C200.089 16.3724 199.015 15.7756 197.849 15.7399L197.295 15.7232C196.628 15.7029 196.107 16.2379 196.207 16.8426L197.384 24.0276L199.111 35.683C199.18 36.1492 199.556 36.4667 199.979 36.4143L205.66 35.7133C206.262 35.6388 206.866 35.6352 207.464 35.7021L213.948 36.4226C214.382 36.4704 214.791 36.1485 214.904 35.6698L217.011 26.7239L219.344 17.6213C219.507 16.9937 218.995 16.3844 218.289 16.3621Z" fill="#F94A3D"/>
<path d="M200.626 24.124L199.449 16.939C199.408 16.6936 199.474 16.4626 199.606 16.2729C199.086 15.9491 198.483 15.76 197.85 15.7403L197.296 15.7236C196.629 15.7033 196.108 16.2383 196.207 16.843L197.384 24.028L199.112 35.6834C199.18 36.1496 199.557 36.4671 199.979 36.4147L202.466 36.1082C202.411 36.0106 202.371 35.9007 202.353 35.7794L200.626 24.124Z" fill="#FF7664"/>
</svg>
