<svg width="155" height="30" viewBox="0 0 155 30" fill="none" xmlns="http://www.w3.org/2000/svg">
<rect y="0.000488281" width="31" height="30" rx="7" fill="#F94A3D"/>
<path d="M15.1 5.344H7.736V25H15.1C21.372 25 25.404 20.996 25.404 15.172C25.404 9.32 21.372 5.344 15.1 5.344ZM12.524 20.856V9.432H14.792C18.404 9.432 20.532 11.56 20.532 15.172C20.532 18.784 18.404 20.856 14.792 20.856H12.524Z" fill="white"/>
<path d="M39.55 23.0005H43.825V15.9005H49.175V12.5755H43.825V8.87549H50.975V5.45049H39.55V23.0005ZM52.1219 16.0005C52.1219 20.4005 54.8469 23.2005 58.2719 23.2005C60.3219 23.2005 61.7969 22.2755 62.5719 21.0005V23.0005H66.8469V4.50049H62.5719V10.9755C61.7219 9.70049 60.1219 8.85049 58.2719 8.85049C54.8469 8.85049 52.1219 11.6005 52.1219 16.0005ZM62.5719 16.0255C62.5719 18.2505 61.1469 19.4755 59.5219 19.4755C57.9219 19.4755 56.4719 18.2255 56.4719 16.0005C56.4719 13.7755 57.9219 12.5755 59.5219 12.5755C61.1469 12.5755 62.5719 13.8005 62.5719 16.0255ZM75.8396 12.2755C77.2646 12.2755 78.4646 13.1505 78.4646 14.6755H73.1146C73.3646 13.1255 74.4396 12.2755 75.8396 12.2755ZM82.5146 18.3755H77.9646C77.6146 19.1255 76.9396 19.7255 75.7396 19.7255C74.3646 19.7255 73.2396 18.8755 73.0896 17.0505H82.7646C82.8146 16.6255 82.8396 16.2005 82.8396 15.8005C82.8396 11.5505 79.9646 8.85049 75.8896 8.85049C71.7396 8.85049 68.8396 11.6005 68.8396 16.0255C68.8396 20.4505 71.7896 23.2005 75.8896 23.2005C79.3646 23.2005 81.8396 21.1005 82.5146 18.3755ZM84.8449 23.0005H89.1199V4.50049H84.8449V23.0005ZM91.968 23.0005H96.243V9.05049H91.968V23.0005ZM94.118 7.60049C95.618 7.60049 96.643 6.57549 96.643 5.30049C96.643 4.00049 95.618 2.97549 94.118 2.97549C92.593 2.97549 91.568 4.00049 91.568 5.30049C91.568 6.57549 92.593 7.60049 94.118 7.60049ZM97.766 9.05049L102.716 23.0005H107.991L112.941 9.05049H108.391L105.366 19.0005L102.341 9.05049H97.766ZM120.64 12.2755C122.065 12.2755 123.265 13.1505 123.265 14.6755H117.915C118.165 13.1255 119.24 12.2755 120.64 12.2755ZM127.315 18.3755H122.765C122.415 19.1255 121.74 19.7255 120.54 19.7255C119.165 19.7255 118.04 18.8755 117.89 17.0505H127.565C127.615 16.6255 127.64 16.2005 127.64 15.8005C127.64 11.5505 124.765 8.85049 120.69 8.85049C116.54 8.85049 113.64 11.6005 113.64 16.0255C113.64 20.4505 116.59 23.2005 120.69 23.2005C124.165 23.2005 126.64 21.1005 127.315 18.3755ZM133.921 16.5255C133.921 14.1255 135.096 13.4255 137.121 13.4255H138.296V8.90049C136.421 8.90049 134.896 9.90049 133.921 11.3755V9.05049H129.646V23.0005H133.921V16.5255ZM146.514 17.7755L143.289 9.05049H138.514L144.189 22.5255L140.989 29.6255H145.589L154.339 9.05049H149.714L146.514 17.7755Z" fill="#F94A3D"/>
</svg>
